<svg width="30" height="30" viewBox="0 0 30 30" fill="none" xmlns="http://www.w3.org/2000/svg">
<rect width="30" height="30" rx="4" fill="#0FB366"/>
<path d="M10.51 19.314V11.362L11.028 12.034L9.04 13.042L8.634 11.446L11.308 10.06H12.316V19.314H10.51ZM8.872 20V18.32H13.996V20H8.872ZM15.9485 20L15.4865 18.852L18.4265 15.562C18.5945 15.394 18.7671 15.2027 18.9445 14.988C19.1218 14.764 19.2898 14.5353 19.4485 14.302C19.6165 14.0593 19.7518 13.826 19.8545 13.602C19.9571 13.3687 20.0085 13.154 20.0085 12.958C20.0085 12.706 19.9525 12.4867 19.8405 12.3C19.7378 12.1133 19.5885 11.9687 19.3925 11.866C19.1965 11.7633 18.9538 11.712 18.6645 11.712C18.4125 11.712 18.1651 11.7867 17.9225 11.936C17.6891 12.076 17.4698 12.2813 17.2645 12.552C17.0685 12.8133 16.9051 13.126 16.7745 13.49L15.4025 12.678C15.5705 12.1367 15.8225 11.67 16.1585 11.278C16.5038 10.8767 16.9051 10.5687 17.3625 10.354C17.8291 10.1393 18.3331 10.032 18.8745 10.032C19.4345 10.032 19.9338 10.1487 20.3725 10.382C20.8111 10.6153 21.1565 10.9373 21.4085 11.348C21.6698 11.7587 21.8005 12.2393 21.8005 12.79C21.8005 12.9953 21.7771 13.21 21.7305 13.434C21.6838 13.6487 21.6091 13.8773 21.5065 14.12C21.4131 14.3533 21.2871 14.6007 21.1285 14.862C20.9698 15.114 20.7785 15.38 20.5545 15.66C20.3398 15.94 20.0925 16.234 19.8125 16.542L17.5865 18.964L17.3065 18.32H22.1505V20H15.9485Z" fill="white"/>
</svg>
