<svg width="30" height="30" viewBox="0 0 30 30" fill="none" xmlns="http://www.w3.org/2000/svg">
<rect width="30" height="30" rx="4" fill="#D0D5DD"/>
<path d="M10.01 19.314V11.362L10.528 12.034L8.54 13.042L8.134 11.446L10.808 10.06H11.816V19.314H10.01ZM8.372 20V18.32H13.496V20H8.372ZM18.4025 20.042C17.7771 20.042 17.2031 19.916 16.6805 19.664C16.1671 19.4027 15.7565 19.0573 15.4485 18.628C15.1405 18.1893 14.9865 17.704 14.9865 17.172C14.9865 16.8547 15.0285 16.5607 15.1125 16.29C15.2058 16.0193 15.3365 15.7767 15.5045 15.562C15.6818 15.3473 15.8918 15.156 16.1345 14.988C16.3865 14.8107 16.6711 14.6567 16.9885 14.526L16.8765 14.918C16.6338 14.8153 16.4098 14.694 16.2045 14.554C16.0085 14.414 15.8358 14.2553 15.6865 14.078C15.5465 13.8913 15.4391 13.6953 15.3645 13.49C15.2898 13.2753 15.2525 13.0513 15.2525 12.818C15.2525 12.314 15.3925 11.8613 15.6725 11.46C15.9618 11.0587 16.3445 10.7413 16.8205 10.508C17.2965 10.2653 17.8238 10.144 18.4025 10.144C18.9905 10.144 19.5225 10.2653 19.9985 10.508C20.4745 10.7413 20.8525 11.0587 21.1325 11.46C21.4218 11.8613 21.5665 12.314 21.5665 12.818C21.5665 13.0513 21.5291 13.2753 21.4545 13.49C21.3798 13.6953 21.2725 13.8867 21.1325 14.064C21.0018 14.232 20.8338 14.3907 20.6285 14.54C20.4231 14.68 20.1851 14.806 19.9145 14.918L19.8445 14.582C20.1431 14.6847 20.4138 14.82 20.6565 14.988C20.8991 15.156 21.1091 15.352 21.2865 15.576C21.4638 15.8 21.5991 16.0473 21.6925 16.318C21.7951 16.5887 21.8465 16.8733 21.8465 17.172C21.8465 17.7133 21.6925 18.2033 21.3845 18.642C21.0765 19.0713 20.6611 19.412 20.1385 19.664C19.6251 19.916 19.0465 20.042 18.4025 20.042ZM18.4025 18.474C18.7198 18.474 19.0045 18.4133 19.2565 18.292C19.5085 18.1707 19.7045 18.0073 19.8445 17.802C19.9938 17.5967 20.0685 17.3587 20.0685 17.088C20.0685 16.7987 19.9938 16.5467 19.8445 16.332C19.7045 16.108 19.5085 15.9353 19.2565 15.814C19.0045 15.6833 18.7198 15.618 18.4025 15.618C18.0945 15.618 17.8145 15.6833 17.5625 15.814C17.3198 15.9353 17.1238 16.108 16.9745 16.332C16.8251 16.5467 16.7505 16.7987 16.7505 17.088C16.7505 17.3493 16.8251 17.5827 16.9745 17.788C17.1238 17.9933 17.3198 18.1613 17.5625 18.292C17.8145 18.4133 18.0945 18.474 18.4025 18.474ZM18.4025 14.078C18.6825 14.078 18.9298 14.0267 19.1445 13.924C19.3685 13.8213 19.5411 13.6813 19.6625 13.504C19.7838 13.3267 19.8445 13.1213 19.8445 12.888C19.8445 12.6453 19.7838 12.4353 19.6625 12.258C19.5411 12.0713 19.3685 11.9267 19.1445 11.824C18.9298 11.712 18.6825 11.656 18.4025 11.656C18.1318 11.656 17.8845 11.712 17.6605 11.824C17.4458 11.9267 17.2778 12.0713 17.1565 12.258C17.0351 12.4353 16.9745 12.6453 16.9745 12.888C16.9745 13.1213 17.0351 13.3267 17.1565 13.504C17.2778 13.6813 17.4458 13.8213 17.6605 13.924C17.8845 14.0267 18.1318 14.078 18.4025 14.078Z" fill="white"/>
</svg>
