<svg width="30" height="30" viewBox="0 0 30 30" fill="none" xmlns="http://www.w3.org/2000/svg">
<rect width="30" height="30" rx="4" fill="#F9A000"/>
<path d="M12.134 20L11.672 18.852L14.612 15.562C14.78 15.394 14.9527 15.2027 15.13 14.988C15.3073 14.764 15.4753 14.5353 15.634 14.302C15.802 14.0593 15.9373 13.826 16.04 13.602C16.1427 13.3687 16.194 13.154 16.194 12.958C16.194 12.706 16.138 12.4867 16.026 12.3C15.9233 12.1133 15.774 11.9687 15.578 11.866C15.382 11.7633 15.1393 11.712 14.85 11.712C14.598 11.712 14.3507 11.7867 14.108 11.936C13.8747 12.076 13.6553 12.2813 13.45 12.552C13.254 12.8133 13.0907 13.126 12.96 13.49L11.588 12.678C11.756 12.1367 12.008 11.67 12.344 11.278C12.6893 10.8767 13.0907 10.5687 13.548 10.354C14.0147 10.1393 14.5187 10.032 15.06 10.032C15.62 10.032 16.1193 10.1487 16.558 10.382C16.9967 10.6153 17.342 10.9373 17.594 11.348C17.8553 11.7587 17.986 12.2393 17.986 12.79C17.986 12.9953 17.9627 13.21 17.916 13.434C17.8693 13.6487 17.7947 13.8773 17.692 14.12C17.5987 14.3533 17.4727 14.6007 17.314 14.862C17.1553 15.114 16.964 15.38 16.74 15.66C16.5253 15.94 16.278 16.234 15.998 16.542L13.772 18.964L13.492 18.32H18.336V20H12.134Z" fill="white"/>
</svg>
