<svg width="24" height="24" viewBox="0 0 24 24" fill="none" xmlns="http://www.w3.org/2000/svg">
<path fill-rule="evenodd" clip-rule="evenodd" d="M7.20039 2.40002C6.88213 2.40002 6.57691 2.52645 6.35186 2.7515C6.12682 2.97654 6.00039 3.28176 6.00039 3.60002V4.80002H4.80039C4.16387 4.80002 3.55342 5.05288 3.10333 5.50297C2.65325 5.95306 2.40039 6.56351 2.40039 7.20002V19.2C2.40039 19.8365 2.65325 20.447 3.10333 20.8971C3.55342 21.3472 4.16387 21.6 4.80039 21.6H19.2004C19.8369 21.6 20.4474 21.3472 20.8974 20.8971C21.3475 20.447 21.6004 19.8365 21.6004 19.2V7.20002C21.6004 6.56351 21.3475 5.95306 20.8974 5.50297C20.4474 5.05288 19.8369 4.80002 19.2004 4.80002H18.0004V3.60002C18.0004 3.28176 17.874 2.97654 17.6489 2.7515C17.4239 2.52645 17.1187 2.40002 16.8004 2.40002C16.4821 2.40002 16.1769 2.52645 15.9519 2.7515C15.7268 2.97654 15.6004 3.28176 15.6004 3.60002V4.80002H8.40039V3.60002C8.40039 3.28176 8.27396 2.97654 8.04892 2.7515C7.82387 2.52645 7.51865 2.40002 7.20039 2.40002ZM7.20039 8.40002C6.88213 8.40002 6.57691 8.52645 6.35186 8.7515C6.12682 8.97654 6.00039 9.28176 6.00039 9.60002C6.00039 9.91828 6.12682 10.2235 6.35186 10.4486C6.57691 10.6736 6.88213 10.8 7.20039 10.8H16.8004C17.1187 10.8 17.4239 10.6736 17.6489 10.4486C17.874 10.2235 18.0004 9.91828 18.0004 9.60002C18.0004 9.28176 17.874 8.97654 17.6489 8.7515C17.4239 8.52645 17.1187 8.40002 16.8004 8.40002H7.20039Z" fill="white" fill-opacity="0.8"/>
</svg>
