<svg width="64" height="64" viewBox="0 0 64 64" fill="none" xmlns="http://www.w3.org/2000/svg">
<path d="M14.4 6.40006C16.5217 6.40006 18.5566 7.24292 20.0569 8.74321C21.5571 10.2435 22.4 12.2783 22.4 14.4001C22.4 16.5218 21.5571 18.5566 20.0569 20.0569C18.5566 21.5572 16.5217 22.4001 14.4 22.4001C12.2783 22.4001 10.2434 21.5572 8.74315 20.0569C7.24285 18.5566 6.4 16.5218 6.4 14.4001C6.4 12.2783 7.24285 10.2435 8.74315 8.74321C10.2434 7.24292 12.2783 6.40006 14.4 6.40006ZM51.2 6.40006C53.3217 6.40006 55.3566 7.24292 56.8569 8.74321C58.3571 10.2435 59.2 12.2783 59.2 14.4001C59.2 16.5218 58.3571 18.5566 56.8569 20.0569C55.3566 21.5572 53.3217 22.4001 51.2 22.4001C49.0783 22.4001 47.0434 21.5572 45.5431 20.0569C44.0429 18.5566 43.2 16.5218 43.2 14.4001C43.2 12.2783 44.0429 10.2435 45.5431 8.74321C47.0434 7.24292 49.0783 6.40006 51.2 6.40006ZM0 36.2701C0 30.3801 4.78 25.6001 10.67 25.6001H14.94C16.53 25.6001 18.04 25.9501 19.4 26.5701C19.27 27.2901 19.21 28.0401 19.21 28.8001C19.21 32.6201 20.89 36.0501 23.54 38.4001C23.52 38.4001 23.5 38.4001 23.47 38.4001H2.13C0.96 38.4001 0 37.4401 0 36.2701ZM40.53 38.4001C40.51 38.4001 40.49 38.4001 40.46 38.4001C43.12 36.0501 44.79 32.6201 44.79 28.8001C44.79 28.0401 44.72 27.3001 44.6 26.5701C45.96 25.9401 47.47 25.6001 49.06 25.6001H53.33C59.22 25.6001 64 30.3801 64 36.2701C64 37.4501 63.04 38.4001 61.87 38.4001H40.53ZM22.4 28.8001C22.4 26.254 23.4114 23.8122 25.2118 22.0118C27.0121 20.2115 29.4539 19.2001 32 19.2001C34.5461 19.2001 36.9879 20.2115 38.7882 22.0118C40.5886 23.8122 41.6 26.254 41.6 28.8001C41.6 31.3461 40.5886 33.7879 38.7882 35.5883C36.9879 37.3886 34.5461 38.4001 32 38.4001C29.4539 38.4001 27.0121 37.3886 25.2118 35.5883C23.4114 33.7879 22.4 31.3461 22.4 28.8001ZM12.8 54.9301C12.8 47.5701 18.77 41.6001 26.13 41.6001H37.87C45.23 41.6001 51.2 47.5701 51.2 54.9301C51.2 56.4001 50.01 57.6001 48.53 57.6001H15.47C14 57.6001 12.8 56.4101 12.8 54.9301Z" fill="white"/>
</svg>
