<svg width="24" height="24" viewBox="0 0 24 24" fill="none" xmlns="http://www.w3.org/2000/svg">
<rect y="0.00634766" width="23.9996" height="23.9875" rx="4" fill="#EEEAFF"/>
<path fill-rule="evenodd" clip-rule="evenodd" d="M9.29279 16.7011C9.10532 16.5135 9 16.2592 9 15.9941C9 15.7289 9.10532 15.4746 9.29279 15.2871L12.5858 11.9941L9.29279 8.70106C9.11063 8.51246 9.00983 8.25986 9.01211 7.99766C9.01439 7.73546 9.11956 7.48465 9.30497 7.29924C9.49038 7.11383 9.74119 7.00866 10.0034 7.00639C10.2656 7.00411 10.5182 7.1049 10.7068 7.28706L14.7068 11.2871C14.8943 11.4746 14.9996 11.7289 14.9996 11.9941C14.9996 12.2592 14.8943 12.5135 14.7068 12.7011L10.7068 16.7011C10.5193 16.8885 10.265 16.9938 9.99979 16.9938C9.73462 16.9938 9.48031 16.8885 9.29279 16.7011Z" fill="#7E65EF"/>
</svg>
