  <svg width="24" height="24" viewBox="0 0 24 24" fill="none" xmlns="http://www.w3.org/2000/svg">
                      <path d="M10.7999 5.96481C9.49156 5.3278 8.05508 4.99782 6.5999 5.00001C5.0939 5.00001 3.6683 5.34801 2.3999 5.96481V17.9648C3.70826 17.3278 5.14473 16.9979 6.5999 17C8.6027 17 10.4615 17.612 11.9999 18.662C13.5912 17.5763 15.4735 16.997 17.3999 17C18.9059 17 20.3315 17.348 21.5999 17.9648V5.96481C20.2916 5.3278 18.8551 4.99782 17.3999 5.00001C15.8939 5.00001 14.4683 5.34801 13.1999 5.96481V14.6C13.1999 14.9183 13.0735 15.2235 12.8484 15.4485C12.6234 15.6736 12.3182 15.8 11.9999 15.8C11.6816 15.8 11.3764 15.6736 11.1514 15.4485C10.9263 15.2235 10.7999 14.9183 10.7999 14.6V5.96481Z" fill="white" fill-opacity="0.8" />
                    </svg>