<svg width="21" height="20" viewBox="0 0 21 20" fill="none" xmlns="http://www.w3.org/2000/svg">
<path d="M12.889 5.83339L7.37969 11.3217C7.2199 11.4755 7.09244 11.6594 7.00476 11.8627C6.91707 12.0661 6.87092 12.2848 6.86899 12.5061C6.86706 12.7274 6.90939 12.9468 6.99351 13.1516C7.07764 13.3565 7.20186 13.5426 7.35895 13.699C7.51604 13.8555 7.70284 13.9793 7.90845 14.0631C8.11406 14.1469 8.33437 14.1891 8.55651 14.1871C8.77866 14.1852 8.99819 14.1392 9.20231 14.0519C9.40643 13.9645 9.59104 13.8376 9.74538 13.6784L15.1108 8.19006C15.7204 7.56138 16.0576 6.71937 16.05 5.84538C16.0424 4.9714 15.6905 4.13535 15.0701 3.51733C14.4497 2.8993 13.6104 2.54874 12.7331 2.54114C11.8558 2.53355 11.0105 2.86953 10.3795 3.47672L5.01316 8.96422C4.07181 9.90198 3.54297 11.1739 3.54297 12.5001C3.54297 13.8263 4.07181 15.0981 5.01316 16.0359C5.95452 16.9737 7.23126 17.5005 8.56253 17.5005C9.8938 17.5005 11.1706 16.9737 12.1119 16.0359L17.346 10.8334" stroke="#333333" stroke-width="1.5" stroke-linecap="round" stroke-linejoin="round"/>
</svg>
