<svg width="20" height="20" viewBox="0 0 20 20" fill="none" xmlns="http://www.w3.org/2000/svg">
<path d="M12.6433 5.83339L7.15498 11.3217C6.99579 11.4755 6.86882 11.6594 6.78147 11.8627C6.69413 12.0661 6.64815 12.2848 6.64623 12.5061C6.6443 12.7274 6.68647 12.9468 6.77027 13.1516C6.85407 13.3565 6.97783 13.5426 7.13432 13.699C7.29081 13.8555 7.47689 13.9793 7.68172 14.0631C7.88655 14.1469 8.10601 14.1891 8.32731 14.1871C8.54861 14.1852 8.76731 14.1392 8.97065 14.0519C9.17399 13.9645 9.3579 13.8376 9.51164 13.6784L14.8566 8.19006C15.4638 7.56138 15.7998 6.71937 15.7922 5.84538C15.7846 4.9714 15.4341 4.13535 14.816 3.51733C14.198 2.8993 13.362 2.54874 12.488 2.54114C11.614 2.53355 10.772 2.86953 10.1433 3.47672L4.79748 8.96422C3.85971 9.90198 3.33289 11.1739 3.33289 12.5001C3.33289 13.8263 3.85971 15.0981 4.79748 16.0359C5.73524 16.9737 7.00711 17.5005 8.33331 17.5005C9.6595 17.5005 10.9314 16.9737 11.8691 16.0359L17.0833 10.8334" stroke="#333333" stroke-width="1.5" stroke-linecap="round" stroke-linejoin="round"/>
</svg>
