<svg width="24" height="24" viewBox="0 0 24 24" fill="none" xmlns="http://www.w3.org/2000/svg">
<path d="M10.8 7.19961C10.8 8.15439 10.4207 9.07006 9.74554 9.74519C9.0704 10.4203 8.15473 10.7996 7.19995 10.7996C6.24517 10.7996 5.3295 10.4203 4.65437 9.74519C3.97924 9.07006 3.59995 8.15439 3.59995 7.19961C3.59995 6.24483 3.97924 5.32916 4.65437 4.65403C5.3295 3.97889 6.24517 3.59961 7.19995 3.59961C8.15473 3.59961 9.0704 3.97889 9.74554 4.65403C10.4207 5.32916 10.8 6.24483 10.8 7.19961ZM20.4 7.19961C20.4 7.67237 20.3068 8.1405 20.1259 8.57727C19.945 9.01404 19.6798 9.4109 19.3455 9.74519C19.0112 10.0795 18.6144 10.3447 18.1776 10.5256C17.7408 10.7065 17.2727 10.7996 16.8 10.7996C16.3272 10.7996 15.8591 10.7065 15.4223 10.5256C14.9855 10.3447 14.5887 10.0795 14.2544 9.74519C13.9201 9.4109 13.6549 9.01404 13.474 8.57727C13.2931 8.1405 13.2 7.67237 13.2 7.19961C13.2 6.24483 13.5792 5.32916 14.2544 4.65403C14.9295 3.97889 15.8452 3.59961 16.8 3.59961C17.7547 3.59961 18.6704 3.97889 19.3455 4.65403C20.0207 5.32916 20.4 6.24483 20.4 7.19961ZM15.516 20.3996C15.5712 20.0072 15.6 19.6076 15.6 19.1996C15.6027 17.3142 14.9684 15.4832 13.8 14.0036C14.7121 13.477 15.7467 13.1998 16.7999 13.1998C17.8531 13.1998 18.8878 13.477 19.7999 14.0036C20.712 14.5302 21.4694 15.2876 21.996 16.1997C22.5227 17.1118 22.7999 18.1464 22.7999 19.1996V20.3996H15.516ZM7.19995 13.1996C8.79125 13.1996 10.3174 13.8318 11.4426 14.957C12.5678 16.0822 13.2 17.6083 13.2 19.1996V20.3996H1.19995V19.1996C1.19995 17.6083 1.83209 16.0822 2.95731 14.957C4.08253 13.8318 5.60865 13.1996 7.19995 13.1996Z" fill="white" fill-opacity="0.8"/>
</svg>
