
<svg width="21" height="20" viewBox="0 0 21 20" fill="none" xmlns="http://www.w3.org/2000/svg">
<path d="M10.1449 4.16762H5.97819C5.53616 4.16762 5.11224 4.34321 4.79968 4.65577C4.48712 4.96833 4.31152 5.39225 4.31152 5.83428V15.0009C4.31152 15.443 4.48712 15.8669 4.79968 16.1795C5.11224 16.492 5.53616 16.6676 5.97819 16.6676H15.1449C15.5869 16.6676 16.0108 16.492 16.3234 16.1795C16.6359 15.8669 16.8115 15.443 16.8115 15.0009V10.8343M15.6332 2.98928C15.7869 2.8301 15.9708 2.70313 16.1742 2.61578C16.3775 2.52843 16.5962 2.48245 16.8175 2.48053C17.0388 2.47861 17.2583 2.52078 17.4631 2.60458C17.6679 2.68838 17.854 2.81214 18.0105 2.96862C18.167 3.12511 18.2908 3.3112 18.3746 3.51603C18.4584 3.72085 18.5005 3.94032 18.4986 4.16162C18.4967 4.38292 18.4507 4.60162 18.3634 4.80496C18.276 5.0083 18.149 5.1922 17.9899 5.34595L10.8349 12.5009H8.47819V10.1443L15.6332 2.98928Z" stroke="#333333" stroke-width="1.5" stroke-linecap="round" stroke-linejoin="round"/>
</svg>
