
<svg width="17" height="16" viewBox="0 0 17 16" fill="none" xmlns="http://www.w3.org/2000/svg">
<path d="M2.50195 5.33398L7.76195 8.84065C7.98106 8.98684 8.23856 9.06485 8.50195 9.06485C8.76535 9.06485 9.02285 8.98684 9.24195 8.84065L14.502 5.33398M3.83529 12.6673H13.1686C13.5222 12.6673 13.8614 12.5268 14.1114 12.2768C14.3615 12.0267 14.502 11.6876 14.502 11.334V4.66732C14.502 4.3137 14.3615 3.97456 14.1114 3.72451C13.8614 3.47446 13.5222 3.33398 13.1686 3.33398H3.83529C3.48166 3.33398 3.14253 3.47446 2.89248 3.72451C2.64243 3.97456 2.50195 4.3137 2.50195 4.66732V11.334C2.50195 11.6876 2.64243 12.0267 2.89248 12.2768C3.14253 12.5268 3.48166 12.6673 3.83529 12.6673Z" stroke="#333333" stroke-width="2" stroke-linecap="round" stroke-linejoin="round"/>
</svg>
