<svg width="18" height="18" viewBox="0 0 18 18" fill="none" xmlns="http://www.w3.org/2000/svg">
<path fill-rule="evenodd" clip-rule="evenodd" d="M5.3998 1.79999C5.16111 1.79999 4.93219 1.89481 4.76341 2.06359C4.59463 2.23237 4.4998 2.46129 4.4998 2.69999V3.59999H3.5998C3.12242 3.59999 2.66458 3.78963 2.32701 4.1272C1.98945 4.46476 1.7998 4.9226 1.7998 5.39999V14.4C1.7998 14.8774 1.98945 15.3352 2.32701 15.6728C2.66458 16.0103 3.12242 16.2 3.5998 16.2H14.3998C14.8772 16.2 15.335 16.0103 15.6726 15.6728C16.0102 15.3352 16.1998 14.8774 16.1998 14.4V5.39999C16.1998 4.9226 16.0102 4.46476 15.6726 4.1272C15.335 3.78963 14.8772 3.59999 14.3998 3.59999H13.4998V2.69999C13.4998 2.46129 13.405 2.23237 13.2362 2.06359C13.0674 1.89481 12.8385 1.79999 12.5998 1.79999C12.3611 1.79999 12.1322 1.89481 11.9634 2.06359C11.7946 2.23237 11.6998 2.46129 11.6998 2.69999V3.59999H6.2998V2.69999C6.2998 2.46129 6.20498 2.23237 6.0362 2.06359C5.86742 1.89481 5.6385 1.79999 5.3998 1.79999ZM5.3998 6.29999C5.16111 6.29999 4.93219 6.39481 4.76341 6.56359C4.59463 6.73237 4.4998 6.96129 4.4998 7.19999C4.4998 7.43868 4.59463 7.6676 4.76341 7.83638C4.93219 8.00517 5.16111 8.09999 5.3998 8.09999H12.5998C12.8385 8.09999 13.0674 8.00517 13.2362 7.83638C13.405 7.6676 13.4998 7.43868 13.4998 7.19999C13.4998 6.96129 13.405 6.73237 13.2362 6.56359C13.0674 6.39481 12.8385 6.29999 12.5998 6.29999H5.3998Z" fill="#788898"/>
</svg>
