<svg width="24" height="25" viewBox="0 0 24 25" fill="none" xmlns="http://www.w3.org/2000/svg">
<rect x="23.9875" y="0.00610352" width="23.9996" height="23.9875" rx="4" transform="rotate(90 23.9875 0.00610352)" fill="#EEEAFF"/>
<path fill-rule="evenodd" clip-rule="evenodd" d="M7.29284 9.29889C7.48036 9.11142 7.73467 9.0061 7.99984 9.0061C8.265 9.0061 8.51931 9.11142 8.70684 9.29889L11.9998 12.5919L15.2928 9.29889C15.4814 9.11673 15.734 9.01594 15.9962 9.01822C16.2584 9.02049 16.5092 9.12566 16.6947 9.31107C16.8801 9.49648 16.9852 9.74729 16.9875 10.0095C16.9898 10.2717 16.889 10.5243 16.7068 10.7129L12.7068 14.7129C12.5193 14.9004 12.265 15.0057 11.9998 15.0057C11.7347 15.0057 11.4804 14.9004 11.2928 14.7129L7.29284 10.7129C7.10537 10.5254 7.00005 10.2711 7.00005 10.0059C7.00005 9.74073 7.10537 9.48642 7.29284 9.29889Z" fill="#7E65EF"/>
</svg>
