<svg width="24" height="25" viewBox="0 0 24 25" fill="none" xmlns="http://www.w3.org/2000/svg">
<rect x="6.10352e-05" y="24.0056" width="23.9996" height="23.9875" rx="4" transform="rotate(-90 6.10352e-05 24.0056)" fill="#EEEAFF"/>
<path fill-rule="evenodd" clip-rule="evenodd" d="M16.6948 14.7128C16.5072 14.9003 16.2529 15.0056 15.9878 15.0056C15.7226 15.0056 15.4683 14.9003 15.2808 14.7128L11.9878 11.4198L8.69477 14.7128C8.50617 14.895 8.25357 14.9958 7.99137 14.9935C7.72917 14.9912 7.47836 14.8861 7.29295 14.7006C7.10755 14.5152 7.00238 14.2644 7.0001 14.0022C6.99782 13.74 7.09862 13.4874 7.28077 13.2988L11.2808 9.29883C11.4683 9.11136 11.7226 9.00604 11.9878 9.00604C12.2529 9.00604 12.5072 9.11136 12.6948 9.29883L16.6948 13.2988C16.8822 13.4864 16.9876 13.7407 16.9876 14.0058C16.9876 14.271 16.8822 14.5253 16.6948 14.7128Z" fill="#7E65EF"/>
</svg>
