<svg width="18" height="18" viewBox="0 0 18 18" fill="none" xmlns="http://www.w3.org/2000/svg">
<path fill-rule="evenodd" clip-rule="evenodd" d="M8.9998 16.2C10.9094 16.2 12.7407 15.4414 14.091 14.0912C15.4412 12.7409 16.1998 10.9095 16.1998 8.99999C16.1998 7.09043 15.4412 5.25908 14.091 3.90882C12.7407 2.55856 10.9094 1.79999 8.9998 1.79999C7.09025 1.79999 5.2589 2.55856 3.90864 3.90882C2.55837 5.25908 1.7998 7.09043 1.7998 8.99999C1.7998 10.9095 2.55837 12.7409 3.90864 14.0912C5.2589 15.4414 7.09025 16.2 8.9998 16.2ZM9.89981 5.39999C9.89981 5.16129 9.80498 4.93237 9.6362 4.76359C9.46742 4.59481 9.2385 4.49999 8.9998 4.49999C8.76111 4.49999 8.53219 4.59481 8.36341 4.76359C8.19463 4.93237 8.0998 5.16129 8.0998 5.39999V8.99999C8.09986 9.23866 8.19471 9.46754 8.36351 9.63629L10.9087 12.1824C10.9923 12.266 11.0916 12.3323 11.2008 12.3776C11.3101 12.4228 11.4272 12.4461 11.5455 12.4461C11.6637 12.4461 11.7808 12.4228 11.8901 12.3776C11.9993 12.3323 12.0986 12.266 12.1822 12.1824C12.2658 12.0988 12.3322 11.9995 12.3774 11.8902C12.4227 11.781 12.446 11.6639 12.446 11.5456C12.446 11.4274 12.4227 11.3103 12.3774 11.201C12.3322 11.0918 12.2658 10.9925 12.1822 10.9089L9.89981 8.62739V5.39999Z" fill="#788898"/>
</svg>
