
<svg width="20" height="20" viewBox="0 0 20 20" fill="none" xmlns="http://www.w3.org/2000/svg">
<path d="M5.33333 7.33333H13.6667M5.33333 10.6667H8.66667M9.5 17.3333L6.16667 14H3.66667C3.22464 14 2.80072 13.8244 2.48816 13.5118C2.17559 13.1993 2 12.7754 2 12.3333V5.66667C2 5.22464 2.17559 4.80072 2.48816 4.48816C2.80072 4.17559 3.22464 4 3.66667 4H15.3333C15.7754 4 16.1993 4.17559 16.5118 4.48816C16.8244 4.80072 17 5.22464 17 5.66667V12.3333C17 12.7754 16.8244 13.1993 16.5118 13.5118C16.1993 13.8244 15.7754 14 15.3333 14H12.8333L9.5 17.3333Z" stroke="#788898" stroke-width="1.5" stroke-linecap="round" stroke-linejoin="round"/>
</svg>