 <svg width="24" height="24" viewBox="0 0 24 24" fill="none" xmlns="http://www.w3.org/2000/svg">
                      <path fill-rule="evenodd" clip-rule="evenodd" d="M7.1999 7.1999V5.9999C7.1999 5.04512 7.57919 4.12945 8.25432 3.45432C8.92945 2.77919 9.84512 2.3999 10.7999 2.3999H13.1999C14.1547 2.3999 15.0704 2.77919 15.7455 3.45432C16.4206 4.12945 16.7999 5.04512 16.7999 5.9999V7.1999H19.1999C19.8364 7.1999 20.4469 7.45276 20.897 7.90285C21.347 8.35293 21.5999 8.96338 21.5999 9.5999V13.8839C18.5274 15.0224 15.2765 15.6035 11.9999 15.5999C8.7233 15.6035 5.47234 15.0224 2.3999 13.8839V9.5999C2.3999 8.96338 2.65276 8.35293 3.10285 7.90285C3.55293 7.45276 4.16338 7.1999 4.7999 7.1999H7.1999ZM9.5999 5.9999C9.5999 5.68164 9.72633 5.37642 9.95137 5.15137C10.1764 4.92633 10.4816 4.7999 10.7999 4.7999H13.1999C13.5182 4.7999 13.8234 4.92633 14.0484 5.15137C14.2735 5.37642 14.3999 5.68164 14.3999 5.9999V7.1999H9.5999V5.9999ZM10.7999 11.9999C10.7999 11.6816 10.9263 11.3764 11.1514 11.1514C11.3764 10.9263 11.6816 10.7999 11.9999 10.7999H12.0119C12.3302 10.7999 12.6354 10.9263 12.8604 11.1514C13.0855 11.3764 13.2119 11.6816 13.2119 11.9999C13.2119 12.3182 13.0855 12.6234 12.8604 12.8484C12.6354 13.0735 12.3302 13.1999 12.0119 13.1999H11.9999C11.6816 13.1999 11.3764 13.0735 11.1514 12.8484C10.9263 12.6234 10.7999 12.3182 10.7999 11.9999Z" fill="white" fill-opacity="0.8" />
                      <path d="M2.3999 16.4304V19.2C2.3999 19.8365 2.65276 20.447 3.10285 20.8971C3.55293 21.3472 4.16338 21.6 4.7999 21.6H19.1999C19.8364 21.6 20.4469 21.3472 20.897 20.8971C21.347 20.447 21.5999 19.8365 21.5999 19.2V16.4304C18.5067 17.4729 15.264 18.0031 11.9999 18C8.6447 18 5.4155 17.448 2.3999 16.4304Z" fill="white" fill-opacity="0.8" />
                    </svg>