
<svg width="21" height="20" viewBox="0 0 21 20" fill="none" xmlns="http://www.w3.org/2000/svg">
<path d="M15.9648 5.83333L15.2423 15.9517C15.2124 16.3722 15.0243 16.7657 14.7158 17.053C14.4073 17.3403 14.0014 17.5 13.5798 17.5H6.68318C6.26163 17.5 5.85573 17.3403 5.54725 17.053C5.23876 16.7657 5.05061 16.3722 5.02068 15.9517L4.29818 5.83333M8.46484 9.16667V14.1667M11.7982 9.16667V14.1667M12.6315 5.83333V3.33333C12.6315 3.11232 12.5437 2.90036 12.3874 2.74408C12.2312 2.5878 12.0192 2.5 11.7982 2.5H8.46484C8.24383 2.5 8.03187 2.5878 7.87559 2.74408C7.71931 2.90036 7.63151 3.11232 7.63151 3.33333V5.83333M3.46484 5.83333H16.7982" stroke="#333333" stroke-width="1.5" stroke-linecap="round" stroke-linejoin="round"/>
</svg>
