<svg width="24" height="24" viewBox="0 0 24 24" fill="none" xmlns="http://www.w3.org/2000/svg">
                      <path d="M6.0001 3.6001C5.36358 3.6001 4.75313 3.85295 4.30304 4.30304C3.85295 4.75313 3.6001 5.36358 3.6001 6.0001V8.4001C3.6001 9.03662 3.85295 9.64707 4.30304 10.0972C4.75313 10.5472 5.36358 10.8001 6.0001 10.8001H8.4001C9.03662 10.8001 9.64707 10.5472 10.0972 10.0972C10.5472 9.64707 10.8001 9.03662 10.8001 8.4001V6.0001C10.8001 5.36358 10.5472 4.75313 10.0972 4.30304C9.64707 3.85295 9.03662 3.6001 8.4001 3.6001H6.0001ZM6.0001 13.2001C5.36358 13.2001 4.75313 13.453 4.30304 13.903C3.85295 14.3531 3.6001 14.9636 3.6001 15.6001V18.0001C3.6001 18.6366 3.85295 19.2471 4.30304 19.6972C4.75313 20.1472 5.36358 20.4001 6.0001 20.4001H8.4001C9.03662 20.4001 9.64707 20.1472 10.0972 19.6972C10.5472 19.2471 10.8001 18.6366 10.8001 18.0001V15.6001C10.8001 14.9636 10.5472 14.3531 10.0972 13.903C9.64707 13.453 9.03662 13.2001 8.4001 13.2001H6.0001ZM13.2001 6.0001C13.2001 5.36358 13.453 4.75313 13.903 4.30304C14.3531 3.85295 14.9636 3.6001 15.6001 3.6001H18.0001C18.6366 3.6001 19.2471 3.85295 19.6972 4.30304C20.1472 4.75313 20.4001 5.36358 20.4001 6.0001V8.4001C20.4001 9.03662 20.1472 9.64707 19.6972 10.0972C19.2471 10.5472 18.6366 10.8001 18.0001 10.8001H15.6001C14.9636 10.8001 14.3531 10.5472 13.903 10.0972C13.453 9.64707 13.2001 9.03662 13.2001 8.4001V6.0001ZM13.2001 15.6001C13.2001 14.9636 13.453 14.3531 13.903 13.903C14.3531 13.453 14.9636 13.2001 15.6001 13.2001H18.0001C18.6366 13.2001 19.2471 13.453 19.6972 13.903C20.1472 14.3531 20.4001 14.9636 20.4001 15.6001V18.0001C20.4001 18.6366 20.1472 19.2471 19.6972 19.6972C19.2471 20.1472 18.6366 20.4001 18.0001 20.4001H15.6001C14.9636 20.4001 14.3531 20.1472 13.903 19.6972C13.453 19.2471 13.2001 18.6366 13.2001 18.0001V15.6001Z" fill="white" fill-opacity="0.8" />
                    </svg>