<svg width="16" height="18" viewBox="0 0 16 18" fill="none" xmlns="http://www.w3.org/2000/svg">
<path d="M13.8333 4.83333L13.1108 14.9517C13.0809 15.3722 12.8927 15.7657 12.5842 16.053C12.2758 16.3403 11.8699 16.5 11.4483 16.5H4.55165C4.1301 16.5 3.7242 16.3403 3.41572 16.053C3.10723 15.7657 2.91908 15.3722 2.88915 14.9517L2.16665 4.83333M6.33331 8.16667V13.1667M9.66665 8.16667V13.1667M10.5 4.83333V2.33333C10.5 2.11232 10.4122 1.90036 10.2559 1.74408C10.0996 1.5878 9.88766 1.5 9.66665 1.5H6.33331C6.1123 1.5 5.90034 1.5878 5.74406 1.74408C5.58778 1.90036 5.49998 2.11232 5.49998 2.33333V4.83333M1.33331 4.83333H14.6666" stroke="black" stroke-width="1.5" stroke-linecap="round" stroke-linejoin="round"/>
</svg>
