<svg width="20" height="20" viewBox="0 0 20 20" fill="none" xmlns="http://www.w3.org/2000/svg">
<path d="M9.13117 0.0956343L0.73035 3.69599C0.205298 3.92101 -0.0872302 4.48356 0.0290311 5.03862C0.145292 5.59367 0.63284 5.99871 1.2029 5.99871V6.29874C1.2029 6.79754 1.60418 7.19883 2.10298 7.19883H17.1044C17.6032 7.19883 18.0045 6.79754 18.0045 6.29874V5.99871C18.5746 5.99871 19.0659 5.59742 19.1784 5.03862C19.2909 4.47981 18.9984 3.91726 18.4771 3.69599L10.0763 0.0956343C9.77623 -0.0318781 9.4312 -0.0318781 9.13117 0.0956343ZM4.80325 8.39894H2.40301V15.7609C2.38051 15.7722 2.35801 15.7872 2.33551 15.8022L0.535331 17.0023C0.0965378 17.2948 -0.102232 17.8424 0.0515333 18.3487C0.205298 18.855 0.674094 19.2 1.2029 19.2H18.0045C18.5333 19.2 18.9984 18.855 19.1521 18.3487C19.3059 17.8424 19.1109 17.2948 18.6684 17.0023L16.8682 15.8022C16.8457 15.7872 16.8232 15.7759 16.8007 15.7609V8.39894H14.4042V15.5996H12.904V8.39894H10.5038V15.5996H8.70363V8.39894H6.30339V15.5996H4.80325V8.39894ZM9.60372 2.39836C9.92201 2.39836 10.2273 2.5248 10.4523 2.74987C10.6774 2.97493 10.8038 3.28019 10.8038 3.59848C10.8038 3.91677 10.6774 4.22202 10.4523 4.44709C10.2273 4.67215 9.92201 4.79859 9.60372 4.79859C9.28543 4.79859 8.98017 4.67215 8.75511 4.44709C8.53004 4.22202 8.4036 3.91677 8.4036 3.59848C8.4036 3.28019 8.53004 2.97493 8.75511 2.74987C8.98017 2.5248 9.28543 2.39836 9.60372 2.39836Z" fill="white" fill-opacity="0.8"/>
</svg>
