
<svg width="17" height="11" viewBox="0 0 17 11" fill="none" xmlns="http://www.w3.org/2000/svg">
<path fill-rule="evenodd" clip-rule="evenodd" d="M0.49836 0.49836C0.817556 0.179261 1.25042 0 1.70176 0C2.15311 0 2.58597 0.179261 2.90517 0.49836L8.51028 6.10347L14.1154 0.49836C14.4364 0.188304 14.8664 0.0167383 15.3127 0.0206164C15.759 0.0244946 16.1859 0.203506 16.5015 0.519094C16.817 0.834683 16.9961 1.2616 16.9999 1.70789C17.0038 2.15418 16.8322 2.58414 16.5222 2.90517L9.71368 9.71368C9.39448 10.0328 8.96162 10.212 8.51028 10.212C8.05893 10.212 7.62607 10.0328 7.30687 9.71368L0.49836 2.90517C0.17926 2.58597 0 2.15311 0 1.70176C0 1.25042 0.17926 0.817556 0.49836 0.49836Z" fill="#5B36C6"/>
</svg>
