
<svg width="20" height="20" viewBox="0 0 20 20" fill="none" xmlns="http://www.w3.org/2000/svg">
<path d="M9.16634 4.16664H4.99967C4.55765 4.16664 4.13372 4.34223 3.82116 4.65479C3.5086 4.96736 3.33301 5.39128 3.33301 5.83331V15C3.33301 15.442 3.5086 15.8659 3.82116 16.1785C4.13372 16.491 4.55765 16.6666 4.99967 16.6666H14.1663C14.6084 16.6666 15.0323 16.491 15.3449 16.1785C15.6574 15.8659 15.833 15.442 15.833 15V10.8333M14.6547 2.98831C14.8084 2.82912 14.9923 2.70215 15.1957 2.6148C15.399 2.52746 15.6177 2.48148 15.839 2.47956C16.0603 2.47763 16.2798 2.5198 16.4846 2.6036C16.6894 2.6874 16.8755 2.81116 17.032 2.96765C17.1885 3.12414 17.3122 3.31022 17.396 3.51505C17.4798 3.71988 17.522 3.93934 17.5201 4.16064C17.5182 4.38194 17.4722 4.60064 17.3848 4.80398C17.2975 5.00732 17.1705 5.19123 17.0113 5.34497L9.85634 12.5H7.49967V10.1433L14.6547 2.98831Z" stroke="black" stroke-width="1.5" stroke-linecap="round" stroke-linejoin="round"/>
</svg>
