
<svg width="24" height="24" viewBox="0 0 24 24" fill="none" xmlns="http://www.w3.org/2000/svg">
<path d="M2.4043 7.0606L12.0007 11.8582L21.5971 7.0606C21.5616 6.44914 21.2936 5.87439 20.8481 5.45408C20.4026 5.03376 19.8132 4.79969 19.2007 4.7998H4.8007C4.1882 4.79969 3.59883 5.03376 3.15331 5.45408C2.70779 5.87439 2.43982 6.44914 2.4043 7.0606Z" fill="#818181"/>
<path d="M21.6014 9.7417L12.0014 14.5417L2.40137 9.7417V16.8001C2.40137 17.4366 2.65422 18.0471 3.10431 18.4972C3.5544 18.9472 4.16485 19.2001 4.80137 19.2001H19.2014C19.8379 19.2001 20.4483 18.9472 20.8984 18.4972C21.3485 18.0471 21.6014 17.4366 21.6014 16.8001V9.7417Z" fill="#818181"/>
</svg>
