 <svg width="24" height="24" viewBox="0 0 24 24" fill="none" xmlns="http://www.w3.org/2000/svg">
                      <path d="M9.6001 3.5999C9.6001 3.28164 9.72653 2.97642 9.95157 2.75137C10.1766 2.52633 10.4818 2.3999 10.8001 2.3999H13.2001C13.5184 2.3999 13.8236 2.52633 14.0486 2.75137C14.2737 2.97642 14.4001 3.28164 14.4001 3.5999C14.4001 3.91816 14.2737 4.22339 14.0486 4.44843C13.8236 4.67347 13.5184 4.7999 13.2001 4.7999H10.8001C10.4818 4.7999 10.1766 4.67347 9.95157 4.44843C9.72653 4.22339 9.6001 3.91816 9.6001 3.5999Z" fill="white" fill-opacity="0.8" />
                      <path d="M7.20005 3.6001C6.56353 3.6001 5.95308 3.85295 5.50299 4.30304C5.05291 4.75313 4.80005 5.36358 4.80005 6.0001V19.2001C4.80005 19.8366 5.05291 20.4471 5.50299 20.8972C5.95308 21.3472 6.56353 21.6001 7.20005 21.6001H16.8001C17.4366 21.6001 18.047 21.3472 18.4971 20.8972C18.9472 20.4471 19.2001 19.8366 19.2001 19.2001V6.0001C19.2001 5.36358 18.9472 4.75313 18.4971 4.30304C18.047 3.85295 17.4366 3.6001 16.8001 3.6001C16.8001 4.55488 16.4208 5.47055 15.7456 6.14568C15.0705 6.82081 14.1548 7.2001 13.2001 7.2001H10.8C9.84527 7.2001 8.9296 6.82081 8.25447 6.14568C7.57933 5.47055 7.20005 4.55488 7.20005 3.6001Z" fill="white" fill-opacity="0.8" />
                    </svg>