<svg width="14" height="14" viewBox="0 0 14 14" fill="none" xmlns="http://www.w3.org/2000/svg">
<path d="M6.99961 8.4001C7.37091 8.4001 7.72701 8.2526 7.98956 7.99005C8.25211 7.7275 8.39961 7.3714 8.39961 7.0001C8.39961 6.62879 8.25211 6.2727 7.98956 6.01015C7.72701 5.7476 7.37091 5.6001 6.99961 5.6001C6.62831 5.6001 6.27221 5.7476 6.00966 6.01015C5.74711 6.2727 5.59961 6.62879 5.59961 7.0001C5.59961 7.3714 5.74711 7.7275 6.00966 7.99005C6.27221 8.2526 6.62831 8.4001 6.99961 8.4001Z" fill="white"/>
<path fill-rule="evenodd" clip-rule="evenodd" d="M0.320312 7.0001C1.21211 4.1602 3.86511 2.1001 6.99971 2.1001C10.1343 2.1001 12.7873 4.1602 13.6791 7.0001C12.7873 9.84 10.1343 11.9001 6.99971 11.9001C3.86511 11.9001 1.21211 9.84 0.320312 7.0001ZM9.79971 7.0001C9.79971 7.7427 9.50471 8.45489 8.97961 8.98C8.45451 9.5051 7.74232 9.8001 6.99971 9.8001C6.25711 9.8001 5.54492 9.5051 5.01981 8.98C4.49471 8.45489 4.19971 7.7427 4.19971 7.0001C4.19971 6.25749 4.49471 5.5453 5.01981 5.0202C5.54492 4.4951 6.25711 4.2001 6.99971 4.2001C7.74232 4.2001 8.45451 4.4951 8.97961 5.0202C9.50471 5.5453 9.79971 6.25749 9.79971 7.0001Z" fill="white"/>
</svg>
