
<svg width="20" height="20" viewBox="0 0 20 20" fill="none" xmlns="http://www.w3.org/2000/svg">
<path d="M12.5 10C12.5 10.663 12.2366 11.2989 11.7678 11.7678C11.2989 12.2366 10.663 12.5 10 12.5C9.33696 12.5 8.70107 12.2366 8.23223 11.7678C7.76339 11.2989 7.5 10.663 7.5 10C7.5 9.33696 7.76339 8.70107 8.23223 8.23223C8.70107 7.76339 9.33696 7.5 10 7.5C10.663 7.5 11.2989 7.76339 11.7678 8.23223C12.2366 8.70107 12.5 9.33696 12.5 10Z" stroke="#788898" stroke-width="1.5" stroke-linecap="round" stroke-linejoin="round"/>
<path d="M2.04785 9.99984C3.10952 6.619 6.26869 4.1665 9.99952 4.1665C13.7312 4.1665 16.8895 6.619 17.9512 9.99984C16.8895 13.3807 13.7312 15.8332 9.99952 15.8332C6.26869 15.8332 3.10952 13.3807 2.04785 9.99984Z" stroke="#788898" stroke-width="1.5" stroke-linecap="round" stroke-linejoin="round"/>
</svg>
