<svg width="17" height="17" viewBox="0 0 17 17" fill="none" xmlns="http://www.w3.org/2000/svg">
<path d="M7.16665 3.16664H2.99998C2.55795 3.16664 2.13403 3.34223 1.82147 3.65479C1.50891 3.96736 1.33331 4.39128 1.33331 4.83331V14C1.33331 14.442 1.50891 14.8659 1.82147 15.1785C2.13403 15.491 2.55795 15.6666 2.99998 15.6666H12.1666C12.6087 15.6666 13.0326 15.491 13.3452 15.1785C13.6577 14.8659 13.8333 14.442 13.8333 14V9.83331M12.655 1.98831C12.8087 1.82912 12.9926 1.70215 13.196 1.6148C13.3993 1.52746 13.618 1.48148 13.8393 1.47956C14.0606 1.47763 14.2801 1.5198 14.4849 1.6036C14.6897 1.6874 14.8758 1.81116 15.0323 1.96765C15.1888 2.12414 15.3125 2.31022 15.3963 2.51505C15.4801 2.71988 15.5223 2.93934 15.5204 3.16064C15.5185 3.38194 15.4725 3.60064 15.3851 3.80398C15.2978 4.00732 15.1708 4.19123 15.0116 4.34497L7.85665 11.5H5.49998V9.14331L12.655 1.98831Z" stroke="#333333" stroke-width="1.5" stroke-linecap="round" stroke-linejoin="round"/>
</svg>
