
<svg width="24" height="24" viewBox="0 0 24 24" fill="none" xmlns="http://www.w3.org/2000/svg">
<path fill-rule="evenodd" clip-rule="evenodd" d="M3.60039 3.59961C3.91865 3.59961 4.22388 3.72604 4.44892 3.95108C4.67396 4.17612 4.80039 4.48135 4.80039 4.79961V19.1996C4.80039 19.5179 4.67396 19.8231 4.44892 20.0481C4.22388 20.2732 3.91865 20.3996 3.60039 20.3996C3.28213 20.3996 2.97691 20.2732 2.75186 20.0481C2.52682 19.8231 2.40039 19.5179 2.40039 19.1996V4.79961C2.40039 4.48135 2.52682 4.17612 2.75186 3.95108C2.97691 3.72604 3.28213 3.59961 3.60039 3.59961ZM12.8488 7.55121C13.0738 7.77624 13.2001 8.08141 13.2001 8.39961C13.2001 8.71781 13.0738 9.02298 12.8488 9.24801L11.2972 10.7996H20.4004C20.7187 10.7996 21.0239 10.926 21.2489 11.1511C21.474 11.3761 21.6004 11.6813 21.6004 11.9996C21.6004 12.3179 21.474 12.6231 21.2489 12.8481C21.0239 13.0732 20.7187 13.1996 20.4004 13.1996H11.2972L12.8488 14.7512C13.0674 14.9775 13.1883 15.2807 13.1856 15.5953C13.1829 15.9099 13.0567 16.2109 12.8342 16.4334C12.6117 16.6559 12.3107 16.7821 11.9961 16.7848C11.6814 16.7876 11.3783 16.6666 11.152 16.448L7.55199 12.848C7.32703 12.623 7.20065 12.3178 7.20065 11.9996C7.20065 11.6814 7.32703 11.3762 7.55199 11.1512L11.152 7.55121C11.377 7.32624 11.6822 7.19987 12.0004 7.19987C12.3186 7.19987 12.6238 7.32624 12.8488 7.55121Z" fill="#818181"/>
</svg>
