<svg width="18" height="18" viewBox="0 0 18 18" fill="none" xmlns="http://www.w3.org/2000/svg">
<path fill-rule="evenodd" clip-rule="evenodd" d="M2.25 13.5C2.25 13.0858 2.58579 12.75 3 12.75H9.87868C9.9895 12.4366 10.1695 12.1486 10.409 11.909C10.831 11.4871 11.4033 11.25 12 11.25C12.5967 11.25 13.169 11.4871 13.591 11.909C13.8305 12.1486 14.0105 12.4366 14.1213 12.75H15C15.4142 12.75 15.75 13.0858 15.75 13.5C15.75 13.9142 15.4142 14.25 15 14.25H14.1213C14.0105 14.5634 13.8305 14.8514 13.591 15.091C13.169 15.5129 12.5967 15.75 12 15.75C11.4033 15.75 10.831 15.5129 10.409 15.091C10.1695 14.8514 9.9895 14.5634 9.87868 14.25H3C2.58579 14.25 2.25 13.9142 2.25 13.5ZM2.25 9C2.25 8.58579 2.58579 8.25 3 8.25H3.87868C3.9895 7.93657 4.16946 7.64856 4.40901 7.40901C4.83097 6.98705 5.40326 6.75 6 6.75C6.59674 6.75 7.16903 6.98705 7.59099 7.40901C7.83054 7.64856 8.0105 7.93657 8.12132 8.25H15C15.4142 8.25 15.75 8.58579 15.75 9C15.75 9.41421 15.4142 9.75 15 9.75H8.12132C8.0105 10.0634 7.83054 10.3514 7.59099 10.591C7.16903 11.0129 6.59674 11.25 6 11.25C5.40326 11.25 4.83097 11.0129 4.40901 10.591C4.16946 10.3514 3.9895 10.0634 3.87868 9.75H3C2.58579 9.75 2.25 9.41421 2.25 9ZM2.25 4.5C2.25 4.08579 2.58579 3.75 3 3.75H9.87868C9.9895 3.43657 10.1695 3.14856 10.409 2.90901C10.831 2.48705 11.4033 2.25 12 2.25C12.5967 2.25 13.169 2.48705 13.591 2.90901C13.8305 3.14856 14.0105 3.43657 14.1213 3.75H15C15.4142 3.75 15.75 4.08579 15.75 4.5C15.75 4.91421 15.4142 5.25 15 5.25H14.1213C14.0105 5.56343 13.8305 5.85144 13.591 6.09099C13.169 6.51295 12.5967 6.75 12 6.75C11.4033 6.75 10.831 6.51295 10.409 6.09099C10.1695 5.85144 9.9895 5.56343 9.87868 5.25H3C2.58579 5.25 2.25 4.91421 2.25 4.5ZM5.25 9C5.25 9.19891 5.32902 9.38968 5.46967 9.53033C5.61032 9.67098 5.80109 9.75 6 9.75C6.19891 9.75 6.38968 9.67098 6.53033 9.53033C6.67098 9.38968 6.75 9.19891 6.75 9C6.75 8.80109 6.67098 8.61032 6.53033 8.46967C6.38968 8.32902 6.19891 8.25 6 8.25C5.80109 8.25 5.61032 8.32902 5.46967 8.46967C5.32902 8.61032 5.25 8.80109 5.25 9ZM11.25 13.5C11.25 13.6989 11.329 13.8897 11.4697 14.0303C11.6103 14.171 11.8011 14.25 12 14.25C12.1989 14.25 12.3897 14.171 12.5303 14.0303C12.671 13.8897 12.75 13.6989 12.75 13.5C12.75 13.3011 12.671 13.1103 12.5303 12.9697C12.3897 12.829 12.1989 12.75 12 12.75C11.8011 12.75 11.6103 12.829 11.4697 12.9697C11.329 13.1103 11.25 13.3011 11.25 13.5ZM11.25 4.5C11.25 4.69891 11.329 4.88968 11.4697 5.03033C11.6103 5.17098 11.8011 5.25 12 5.25C12.1989 5.25 12.3897 5.17098 12.5303 5.03033C12.671 4.88968 12.75 4.69891 12.75 4.5C12.75 4.30109 12.671 4.11032 12.5303 3.96967C12.3897 3.82902 12.1989 3.75 12 3.75C11.8011 3.75 11.6103 3.82902 11.4697 3.96967C11.329 4.11032 11.25 4.30109 11.25 4.5Z" fill="#333333"/>
</svg>