<svg width="13" height="14" viewBox="0 0 13 14" fill="none" xmlns="http://www.w3.org/2000/svg">
<path d="M10.875 3.875L10.3331 11.4638C10.3107 11.7791 10.1696 12.0743 9.9382 12.2897C9.70683 12.5052 9.40241 12.625 9.08625 12.625H3.91375C3.59759 12.625 3.29317 12.5052 3.0618 12.2897C2.83044 12.0743 2.68932 11.7791 2.66688 11.4638L2.125 3.875M5.25 6.375V10.125M7.75 6.375V10.125M8.375 3.875V2C8.375 1.83424 8.30915 1.67527 8.19194 1.55806C8.07473 1.44085 7.91576 1.375 7.75 1.375H5.25C5.08424 1.375 4.92527 1.44085 4.80806 1.55806C4.69085 1.67527 4.625 1.83424 4.625 2V3.875M1.5 3.875H11.5" stroke="#F04438" stroke-width="1.24" stroke-linecap="round" stroke-linejoin="round"/>
</svg>
