<svg width="24" height="24" viewBox="0 0 24 24" fill="none" xmlns="http://www.w3.org/2000/svg">
<path fill-rule="evenodd" clip-rule="evenodd" d="M6.4 4C5.76348 4 5.15303 4.25286 4.70294 4.70294C4.25286 5.15303 4 5.76348 4 6.4V18.4C4 19.0365 4.25286 19.647 4.70294 20.0971C5.15303 20.5471 5.76348 20.8 6.4 20.8H18.4C19.0365 20.8 19.647 20.5471 20.0971 20.0971C20.5471 19.647 20.8 19.0365 20.8 18.4V6.4C20.8 5.76348 20.5471 5.15303 20.0971 4.70294C19.647 4.25286 19.0365 4 18.4 4H6.4ZM17.2 8.8C17.2 8.48174 17.0736 8.17652 16.8485 7.95147C16.6235 7.72643 16.3183 7.6 16 7.6C15.6817 7.6 15.3765 7.72643 15.1515 7.95147C14.9264 8.17652 14.8 8.48174 14.8 8.8V16C14.8 16.3183 14.9264 16.6235 15.1515 16.8485C15.3765 17.0736 15.6817 17.2 16 17.2C16.3183 17.2 16.6235 17.0736 16.8485 16.8485C17.0736 16.6235 17.2 16.3183 17.2 16V8.8ZM13.6 11.2C13.6 10.8817 13.4736 10.5765 13.2485 10.3515C13.0235 10.1264 12.7183 10 12.4 10C12.0817 10 11.7765 10.1264 11.5515 10.3515C11.3264 10.5765 11.2 10.8817 11.2 11.2V16C11.2 16.3183 11.3264 16.6235 11.5515 16.8485C11.7765 17.0736 12.0817 17.2 12.4 17.2C12.7183 17.2 13.0235 17.0736 13.2485 16.8485C13.4736 16.6235 13.6 16.3183 13.6 16V11.2ZM10 14.8C10 14.4817 9.87357 14.1765 9.64853 13.9515C9.42348 13.7264 9.11826 13.6 8.8 13.6C8.48174 13.6 8.17652 13.7264 7.95147 13.9515C7.72643 14.1765 7.6 14.4817 7.6 14.8V16C7.6 16.3183 7.72643 16.6235 7.95147 16.8485C8.17652 17.0736 8.48174 17.2 8.8 17.2C9.11826 17.2 9.42348 17.0736 9.64853 16.8485C9.87357 16.6235 10 16.3183 10 16V14.8Z" fill="white" fill-opacity="0.8"/>
</svg>
