<svg width="56" height="56" viewBox="0 0 56 56" fill="none" xmlns="http://www.w3.org/2000/svg">
<rect width="56" height="56" rx="28" fill="#E1FFF1"/>
<path d="M24.9999 28L26.9999 30L30.9999 26M23.8349 20.697C24.5522 20.6397 25.2331 20.3577 25.7809 19.891C26.3998 19.3633 27.1865 19.0734 27.9999 19.0734C28.8132 19.0734 29.5999 19.3633 30.2189 19.891C30.7666 20.3577 31.4475 20.6397 32.1649 20.697C32.9756 20.7615 33.7368 21.1128 34.3119 21.6879C34.887 22.263 35.2383 23.0242 35.3029 23.835C35.3601 24.5523 35.6421 25.2333 36.1089 25.781C36.6366 26.3999 36.9265 27.1866 36.9265 28C36.9265 28.8134 36.6366 29.6001 36.1089 30.219C35.6421 30.7667 35.3601 31.4477 35.3029 32.165C35.2383 32.9758 34.887 33.737 34.3119 34.3121C33.7368 34.8872 32.9756 35.2385 32.1649 35.303C31.4475 35.3603 30.7666 35.6423 30.2189 36.109C29.5999 36.6367 28.8132 36.9266 27.9999 36.9266C27.1865 36.9266 26.3998 36.6367 25.7809 36.109C25.2331 35.6423 24.5522 35.3603 23.8349 35.303C23.0241 35.2385 22.2629 34.8872 21.6878 34.3121C21.1127 33.737 20.7614 32.9758 20.6969 32.165C20.6396 31.4477 20.3576 30.7667 19.8909 30.219C19.3631 29.6001 19.0732 28.8134 19.0732 28C19.0732 27.1866 19.3631 26.3999 19.8909 25.781C20.3576 25.2333 20.6396 24.5523 20.6969 23.835C20.7614 23.0242 21.1127 22.263 21.6878 21.6879C22.2629 21.1128 23.0241 20.7615 23.8349 20.697Z" stroke="#0FB366" stroke-width="2" stroke-linecap="round" stroke-linejoin="round"/>
</svg>
