<svg width="121" height="40" viewBox="0 0 121 40" fill="none" xmlns="http://www.w3.org/2000/svg">
<path d="M41.9696 16.9509V5.22142H44.148V14.9402H49.5603V16.9509H41.9696ZM52.0497 16.9509V5.22142H59.7241V7.19868H54.1945V14.9737H59.7912V16.9509H52.0497ZM53.0551 11.924V9.98025H58.8695V11.924H53.0551ZM61.2154 16.9509L65.79 5.22142H67.8342L72.3752 16.9509H70.1131L67.5997 10.2819C67.5438 10.1478 67.4656 9.93557 67.3651 9.64512C67.2757 9.35468 67.1752 9.04189 67.0634 8.70676C66.9517 8.36046 66.8512 8.04209 66.7618 7.75164C66.6725 7.45003 66.6054 7.23219 66.5608 7.09814L66.9797 7.08139C66.9126 7.30481 66.8344 7.55615 66.7451 7.83543C66.6557 8.1147 66.5608 8.40515 66.4602 8.70676C66.3597 9.00838 66.2591 9.29882 66.1586 9.5781C66.0692 9.85737 65.9854 10.1087 65.9073 10.3321L63.3938 16.9509H61.2154ZM63.2932 14.2699L64.0473 12.3764H69.3926L70.1969 14.2699H63.2932ZM74.2225 16.9509V5.22142H79.3165C80.0202 5.22142 80.6626 5.38899 81.2434 5.72412C81.8243 6.04807 82.2823 6.49491 82.6175 7.06463C82.9638 7.62318 83.1369 8.25434 83.1369 8.95811C83.1369 9.62837 82.9638 10.2484 82.6175 10.8181C82.2823 11.3766 81.8243 11.8235 81.2434 12.1586C80.6737 12.4825 80.0314 12.6445 79.3165 12.6445H76.3506V16.9509H74.2225ZM81.0256 16.9509L78.043 11.6559L80.2883 11.237L83.6061 16.9677L81.0256 16.9509ZM76.3506 10.751H79.3332C79.6572 10.751 79.9364 10.6784 80.171 10.5332C80.4168 10.3768 80.6067 10.1646 80.7408 9.89647C80.8748 9.62837 80.9418 9.33233 80.9418 9.00838C80.9418 8.63974 80.858 8.32136 80.6905 8.05326C80.5229 7.78516 80.2883 7.57291 79.9867 7.41652C79.6851 7.26012 79.3388 7.18193 78.9478 7.18193H76.3506V10.751ZM85.9062 16.9509V5.22142H87.8667L94.6698 14.3872L94.3012 14.4542C94.2565 14.1414 94.2174 13.8231 94.1839 13.4991C94.1504 13.164 94.1168 12.8177 94.0833 12.4602C94.061 12.1027 94.0386 11.7285 94.0163 11.3375C94.0051 10.9465 93.994 10.5388 93.9828 10.1143C93.9716 9.67863 93.966 9.22063 93.966 8.74027V5.22142H96.1276V16.9509H94.1336L87.297 7.91921L87.7326 7.80191C87.7885 8.42749 87.8332 8.96369 87.8667 9.41053C87.9114 9.8462 87.9449 10.226 87.9672 10.55C87.9896 10.8628 88.0063 11.1253 88.0175 11.3375C88.0398 11.5498 88.051 11.7453 88.051 11.924C88.0622 12.0916 88.0678 12.2535 88.0678 12.4099V16.9509H85.9062ZM46.9463 35.1185C46.0973 35.1185 45.3209 34.9733 44.6172 34.6828C43.9134 34.3924 43.3046 33.9791 42.7907 33.4428C42.2768 32.8955 41.8747 32.2531 41.5842 31.5159C41.305 30.7674 41.1653 29.9519 41.1653 29.0694C41.1653 28.2204 41.3161 27.4329 41.6178 26.7068C41.9194 25.9806 42.3383 25.3439 42.8745 24.7965C43.4107 24.2492 44.0363 23.8247 44.7512 23.523C45.4661 23.2214 46.2425 23.0706 47.0803 23.0706C47.6501 23.0706 48.203 23.1544 48.7392 23.322C49.2754 23.4895 49.767 23.7241 50.2138 24.0257C50.6606 24.3162 51.0349 24.6569 51.3365 25.0479L49.9457 26.5727C49.6553 26.2711 49.3536 26.0197 49.0409 25.8187C48.7392 25.6064 48.4209 25.45 48.0857 25.3495C47.7618 25.2378 47.4266 25.1819 47.0803 25.1819C46.5665 25.1819 46.0805 25.2769 45.6225 25.4668C45.1757 25.6567 44.7847 25.9248 44.4496 26.2711C44.1256 26.6174 43.8687 27.0307 43.6788 27.5111C43.4889 27.9803 43.3939 28.5053 43.3939 29.0862C43.3939 29.6782 43.4833 30.2144 43.662 30.6948C43.8519 31.1751 44.1145 31.5885 44.4496 31.9348C44.7959 32.2811 45.2036 32.5492 45.6728 32.7391C46.1532 32.9178 46.6782 33.0072 47.2479 33.0072C47.6166 33.0072 47.974 32.9569 48.3203 32.8564C48.6666 32.7558 48.985 32.6162 49.2754 32.4375C49.5771 32.2476 49.8507 32.0297 50.0965 31.784L51.1689 33.5099C50.9008 33.8115 50.5433 34.0852 50.0965 34.3309C49.6497 34.5767 49.147 34.7722 48.5884 34.9174C48.0411 35.0515 47.4937 35.1185 46.9463 35.1185ZM53.4242 34.9509V23.2214H61.0987V25.1987H55.5691V32.9737H61.1657V34.9509H53.4242ZM54.4296 29.924V27.9803H60.2441V29.924H54.4296ZM63.897 34.9509V23.2214H65.8575L72.6606 32.3872L72.292 32.4542C72.2473 32.1414 72.2082 31.8231 72.1747 31.4991C72.1412 31.164 72.1077 30.8177 72.0741 30.4602C72.0518 30.1027 72.0295 29.7285 72.0071 29.3375C71.9959 28.9465 71.9848 28.5388 71.9736 28.1143C71.9624 27.6786 71.9569 27.2206 71.9569 26.7403V23.2214H74.1184V34.9509H72.1244L65.2878 25.9192L65.7235 25.8019C65.7793 26.4275 65.824 26.9637 65.8575 27.4105C65.9022 27.8462 65.9357 28.226 65.958 28.55C65.9804 28.8628 65.9971 29.1253 66.0083 29.3375C66.0307 29.5498 66.0418 29.7453 66.0418 29.924C66.053 30.0916 66.0586 30.2535 66.0586 30.4099V34.9509H63.897ZM79.6121 34.9509V25.2322H76.2608V23.2214H85.2422V25.2322H81.7904V34.9509H79.6121ZM87.3789 34.9509V23.2214H92.4729C93.1766 23.2214 93.819 23.389 94.3999 23.7241C94.9808 24.0481 95.4388 24.4949 95.7739 25.0646C96.1202 25.6232 96.2933 26.2543 96.2933 26.9581C96.2933 27.6284 96.1202 28.2484 95.7739 28.8181C95.4388 29.3766 94.9808 29.8235 94.3999 30.1586C93.8302 30.4825 93.1878 30.6445 92.4729 30.6445H89.507V34.9509H87.3789ZM94.182 34.9509L91.1994 29.6559L93.4448 29.237L96.7625 34.9677L94.182 34.9509ZM89.507 28.751H92.4896C92.8136 28.751 93.0929 28.6784 93.3275 28.5332C93.5732 28.3768 93.7631 28.1646 93.8972 27.8965C94.0312 27.6284 94.0983 27.3323 94.0983 27.0084C94.0983 26.6397 94.0145 26.3214 93.8469 26.0533C93.6793 25.7852 93.4448 25.5729 93.1431 25.4165C92.8415 25.2601 92.4952 25.1819 92.1042 25.1819H89.507V28.751ZM97.7556 34.9509L102.33 23.2214H104.374L108.915 34.9509H106.653L104.14 28.2819C104.084 28.1478 104.006 27.9356 103.905 27.6451C103.816 27.3547 103.715 27.0419 103.604 26.7068C103.492 26.3605 103.391 26.0421 103.302 25.7516C103.213 25.45 103.146 25.2322 103.101 25.0981L103.52 25.0814C103.453 25.3048 103.375 25.5562 103.285 25.8354C103.196 26.1147 103.101 26.4051 103 26.7068C102.9 27.0084 102.799 27.2988 102.699 27.5781C102.609 27.8574 102.526 28.1087 102.447 28.3321L99.9339 34.9509H97.7556ZM99.8334 32.2699L100.587 30.3764H105.933L106.737 32.2699H99.8334ZM110.763 34.9509V23.2214H112.941V32.9402H118.353V34.9509H110.763Z" fill="#333333"/>
<g clip-path="url(#clip0_125_443)">
<path d="M0.871207 30.1199V6.09791C0.86673 5.41252 0.995119 4.73299 1.24898 4.09844C1.50285 3.4639 1.87718 2.88689 2.3504 2.40062C2.82363 1.91435 3.38641 1.52844 4.00635 1.2651C4.6263 1.00176 5.29115 0.866196 5.96263 0.866211H23.4998C24.1728 0.866211 24.8393 1.00153 25.4611 1.26445C26.083 1.52737 26.648 1.91273 27.1239 2.39854C27.5999 2.88435 27.9774 3.46109 28.235 4.09583C28.4926 4.73057 28.6251 5.41088 28.6251 6.09791V23.0634C28.6236 24.4499 28.083 25.7792 27.1219 26.7591C26.1609 27.7389 24.8581 28.2893 23.4998 28.2893H8.39519C7.30698 28.2911 6.23025 28.5164 5.22918 28.9519C4.2281 29.3874 3.32318 30.0242 2.56835 30.8244L1.03527 32.6144C1.03527 32.6144 0.871207 31.0322 0.871207 30.1199Z" stroke="#6842D4" stroke-width="1.76651" stroke-linecap="round" stroke-linejoin="round"/>
<path d="M11.3197 35.259L8.88709 33.6305L6.00195 35.259V28.6587H11.3197V35.259Z" fill="#6842D4"/>
<path d="M0.871094 30.1199V32.1583C0.871094 36.0099 4.40115 39.1339 8.79109 39.1339H13.4186C17.7803 39.1339 21.3386 36.0099 21.3386 32.1583L16.1058 32.3892" stroke="#6842D4" stroke-width="1.76651" stroke-linecap="round" stroke-linejoin="round"/>
<path d="M5.16992 17.8896V8.96798C5.17292 8.12919 5.50144 7.3258 6.08356 6.73377C6.66568 6.14174 7.45394 5.80932 8.27568 5.80933H18.1983" stroke="#6842D4" stroke-width="1.76651" stroke-linecap="round" stroke-linejoin="round"/>
</g>
<defs>
<clipPath id="clip0_125_443">
<rect width="29.4737" height="40" fill="white"/>
</clipPath>
</defs>
</svg>
