<svg width="64" height="64" viewBox="0 0 64 64" fill="none" xmlns="http://www.w3.org/2000/svg">
<rect width="64" height="64" rx="32" fill="#EDE7FF"/>
<path d="M25.3273 36C25.3273 36.7072 25.6084 37.3855 26.1086 37.8856C26.6089 38.3857 27.2874 38.6667 27.9949 38.6667M27.9949 44C29.2448 44.0004 30.4775 43.708 31.5941 43.1464C32.7107 42.5847 33.6801 41.7694 34.4248 40.7658C35.1694 39.7622 35.6685 38.5981 35.8821 37.3669C36.0957 36.1358 36.0178 34.8717 35.6547 33.676L38.665 30.6667V28H41.3325V25.3333H44V21.3333C44 20.9797 43.8595 20.6406 43.6094 20.3905C43.3592 20.1405 43.02 20 42.6662 20H39.2171C38.8634 20.0001 38.5242 20.1406 38.2742 20.3907L30.3196 28.3427C29.2193 28.0099 28.0601 27.9181 26.9211 28.0734C25.7821 28.2287 24.6899 28.6275 23.7189 29.2427C22.7479 29.8578 21.9208 30.6749 21.2941 31.6383C20.6673 32.6016 20.2555 33.6887 20.0867 34.8254C19.9179 35.9622 19.9961 37.122 20.316 38.2258C20.6358 39.3296 21.1898 40.3516 21.9402 41.2222C22.6906 42.0928 23.6198 42.7915 24.6646 43.2709C25.7094 43.7502 26.8453 43.9989 27.9949 44Z" stroke="#5B36C6" stroke-width="2" stroke-linecap="round" stroke-linejoin="round"/>
</svg>
