
<svg width="24" height="25" viewBox="0 0 24 25" fill="none" xmlns="http://www.w3.org/2000/svg">
<path d="M12 12.7803C12.55 12.7803 13.021 12.5843 13.413 12.1923C13.805 11.8003 14.0007 11.3296 14 10.7803C14 10.2303 13.804 9.75927 13.412 9.36727C13.02 8.97527 12.5493 8.77961 12 8.78027C11.45 8.78027 10.979 8.97627 10.587 9.36827C10.195 9.76027 9.99933 10.2309 10 10.7803C10 11.3303 10.196 11.8013 10.588 12.1933C10.98 12.5853 11.4507 12.7809 12 12.7803ZM12 20.1303C14.0333 18.2636 15.5417 16.5676 16.525 15.0423C17.5083 13.5169 18 12.1629 18 10.9803C18 9.16361 17.4207 7.67627 16.262 6.51827C15.1033 5.36027 13.6827 4.78094 12 4.78027C10.3167 4.78027 8.89567 5.35961 7.737 6.51827C6.57833 7.67694 5.99933 9.16427 6 10.9803C6 12.1636 6.49167 13.5179 7.475 15.0433C8.45833 16.5686 9.96667 18.2643 12 20.1303ZM12 22.7803C9.31667 20.4969 7.31267 18.3763 5.988 16.4183C4.66333 14.4603 4.00067 12.6476 4 10.9803C4 8.48027 4.80433 6.48861 6.413 5.00527C8.02167 3.52194 9.884 2.78027 12 2.78027C14.1167 2.78027 15.9793 3.52194 17.588 5.00527C19.1967 6.48861 20.0007 8.48027 20 10.9803C20 12.6469 19.3373 14.4596 18.012 16.4183C16.6867 18.3769 14.6827 20.4976 12 22.7803Z" fill="#788898"/>
</svg>
