 <svg width="124" height="41" viewBox="0 0 124 41" fill="none" xmlns="http://www.w3.org/2000/svg">
                <path d="M43.0334 18V5.87407H45.2853V15.9213H50.8806V18H43.0334ZM53.4541 18V5.87407H61.3879V7.91815H55.6714V15.9559H61.4572V18H53.4541ZM54.4935 12.8032V10.7937H60.5045V12.8032H54.4935ZM62.9296 18L67.6588 5.87407H69.7721L74.4666 18H72.128L69.5296 11.1055C69.4719 10.967 69.391 10.7475 69.2871 10.4473C69.1947 10.147 69.0908 9.82366 68.9753 9.4772C68.8598 9.1192 68.7559 8.79007 68.6635 8.48981C68.5711 8.178 68.5018 7.9528 68.4556 7.81422L68.8887 7.79689C68.8194 8.02787 68.7385 8.28771 68.6461 8.57642C68.5538 8.86513 68.4556 9.16539 68.3517 9.4772C68.2477 9.78901 68.1438 10.0893 68.0399 10.378C67.9475 10.6667 67.8608 10.9265 67.78 11.1575L65.1816 18H62.9296ZM65.0777 15.2284L65.8572 13.2709H71.3831L72.2146 15.2284H65.0777ZM76.3763 18V5.87407H81.6424C82.37 5.87407 83.034 6.0473 83.6345 6.39375C84.2351 6.72866 84.7085 7.1906 85.055 7.77957C85.413 8.357 85.592 9.00949 85.592 9.73704C85.592 10.43 85.413 11.0709 85.055 11.6599C84.7085 12.2373 84.2351 12.6992 83.6345 13.0457C83.0456 13.3806 82.3815 13.5481 81.6424 13.5481H78.5763V18H76.3763ZM83.4093 18L80.3259 12.526L82.6471 12.0929L86.077 18.0173L83.4093 18ZM78.5763 11.5906H81.6597C81.9946 11.5906 82.2834 11.5155 82.5259 11.3654C82.7799 11.2037 82.9763 10.9843 83.1148 10.7071C83.2534 10.43 83.3227 10.1239 83.3227 9.78901C83.3227 9.40791 83.2361 9.07878 83.0629 8.80162C82.8897 8.52445 82.6471 8.30503 82.3353 8.14335C82.0235 7.98167 81.6655 7.90083 81.2613 7.90083H78.5763V11.5906ZM88.4549 18V5.87407H90.4816L97.5147 15.3496L97.1336 15.4189C97.0874 15.0956 97.0469 14.7664 97.0123 14.4315C96.9777 14.0851 96.943 13.7271 96.9084 13.3575C96.8853 12.9879 96.8622 12.6011 96.8391 12.1969C96.8275 11.7927 96.816 11.3712 96.8044 10.9323C96.7929 10.4819 96.7871 10.0084 96.7871 9.51185V5.87407H99.0217V18H96.9603L89.8926 8.66303L90.343 8.54177C90.4008 9.18849 90.447 9.74282 90.4816 10.2048C90.5278 10.6552 90.5625 11.0478 90.5856 11.3827C90.6087 11.7061 90.626 11.9775 90.6375 12.1969C90.6606 12.4163 90.6722 12.6184 90.6722 12.8032C90.6837 12.9764 90.6895 13.1439 90.6895 13.3055V18H88.4549ZM48.1782 37.1732C47.3005 37.1732 46.4979 37.0231 45.7704 36.7228C45.0428 36.4226 44.4134 35.9953 43.8822 35.441C43.351 34.8751 42.9352 34.211 42.6349 33.4488C42.3462 32.6751 42.2019 31.832 42.2019 30.9197C42.2019 30.042 42.3578 29.2279 42.6696 28.4772C42.9814 27.7265 43.4145 27.0683 43.9688 26.5024C44.5231 25.9365 45.1698 25.4977 45.9089 25.1859C46.6481 24.8741 47.4507 24.7182 48.3168 24.7182C48.9058 24.7182 49.4774 24.8048 50.0318 24.978C50.5861 25.1512 51.0942 25.3938 51.5562 25.7056C52.0181 26.0058 52.405 26.3581 52.7168 26.7622L51.279 28.3386C50.9787 28.0268 50.6669 27.767 50.3436 27.5591C50.0318 27.3397 49.7026 27.178 49.3562 27.0741C49.0213 26.9586 48.6748 26.9008 48.3168 26.9008C47.7856 26.9008 47.2832 26.999 46.8097 27.1953C46.3478 27.3916 45.9436 27.6688 45.5971 28.0268C45.2622 28.3848 44.9966 28.8121 44.8003 29.3087C44.604 29.7937 44.5058 30.3365 44.5058 30.937C44.5058 31.5491 44.5982 32.1034 44.783 32.6C44.9793 33.0966 45.2507 33.5239 45.5971 33.8819C45.9551 34.2399 46.3767 34.5171 46.8617 34.7134C47.3583 34.8982 47.9011 34.9906 48.49 34.9906C48.8711 34.9906 49.2407 34.9386 49.5987 34.8347C49.9567 34.7307 50.2858 34.5864 50.5861 34.4016C50.8979 34.2053 51.1808 33.9801 51.4349 33.726L52.5436 35.5102C52.2664 35.8221 51.8968 36.105 51.4349 36.3591C50.973 36.6131 50.4533 36.8152 49.8759 36.9654C49.31 37.1039 48.7441 37.1732 48.1782 37.1732ZM54.8751 37V24.8741H62.8089V26.9182H57.0924V34.9559H62.8782V37H54.8751ZM55.9145 31.8032V29.7937H61.9255V31.8032H55.9145ZM65.7018 37V24.8741H67.7286L74.7616 34.3496L74.3805 34.4189C74.3343 34.0956 74.2939 33.7664 74.2593 33.4315C74.2246 33.0851 74.19 32.7271 74.1553 32.3575C74.1322 31.9879 74.1091 31.6011 74.086 31.1969C74.0745 30.7927 74.0629 30.3712 74.0514 29.9323C74.0398 29.4819 74.0341 29.0084 74.0341 28.5118V24.8741H76.2687V37H74.2073L67.1396 27.663L67.59 27.5418C67.6477 28.1885 67.6939 28.7428 67.7286 29.2048C67.7748 29.6552 67.8094 30.0478 67.8325 30.3827C67.8556 30.7061 67.8729 30.9775 67.8845 31.1969C67.9076 31.4163 67.9191 31.6184 67.9191 31.8032C67.9307 31.9764 67.9365 32.1439 67.9365 32.3055V37H65.7018ZM81.948 37V26.9528H78.4834V24.8741H87.7684V26.9528H84.2V37H81.948ZM89.9774 37V24.8741H95.2435C95.971 24.8741 96.6351 25.0473 97.2356 25.3938C97.8361 25.7287 98.3096 26.1906 98.6561 26.7796C99.0141 27.357 99.1931 28.0095 99.1931 28.737C99.1931 29.43 99.0141 30.0709 98.6561 30.6599C98.3096 31.2373 97.8361 31.6992 97.2356 32.0457C96.6466 32.3806 95.9826 32.5481 95.2435 32.5481H92.1774V37H89.9774ZM97.0104 37L93.927 31.526L96.2482 31.0929L99.6781 37.0173L97.0104 37ZM92.1774 30.5906H95.2608C95.5957 30.5906 95.8844 30.5155 96.1269 30.3654C96.381 30.2037 96.5773 29.9843 96.7159 29.7071C96.8545 29.43 96.9238 29.1239 96.9238 28.789C96.9238 28.4079 96.8372 28.0788 96.6639 27.8016C96.4907 27.5245 96.2482 27.305 95.9364 27.1434C95.6246 26.9817 95.2666 26.9008 94.8624 26.9008H92.1774V30.5906ZM100.705 37L105.434 24.8741H107.547L112.242 37H109.903L107.305 30.1055C107.247 29.967 107.166 29.7475 107.062 29.4473C106.97 29.147 106.866 28.8237 106.75 28.4772C106.635 28.1192 106.531 27.7901 106.439 27.4898C106.346 27.178 106.277 26.9528 106.231 26.8142L106.664 26.7969C106.594 27.0279 106.514 27.2877 106.421 27.5764C106.329 27.8651 106.231 28.1654 106.127 28.4772C106.023 28.789 105.919 29.0893 105.815 29.378C105.723 29.6667 105.636 29.9265 105.555 30.1575L102.957 37H100.705ZM102.853 34.2284L103.632 32.2709H109.158L109.99 34.2284H102.853ZM114.151 37V24.8741H116.403V34.9213H121.999V37H114.151Z" fill="white" />
                <g clip-path="url(#clip0_214_1546)">
                  <path d="M0.893182 30.8729V6.25043C0.888594 5.5479 1.02019 4.85138 1.2804 4.20098C1.54061 3.55057 1.9243 2.95913 2.40936 2.46071C2.89442 1.96228 3.47127 1.56672 4.10671 1.2968C4.74215 1.02688 5.42362 0.887924 6.11189 0.887939H24.0874C24.7773 0.887939 25.4605 1.02664 26.0979 1.29614C26.7353 1.56563 27.3144 1.96062 27.8022 2.45858C28.2901 2.95653 28.677 3.54769 28.9411 4.1983C29.2051 4.8489 29.3409 5.54622 29.3409 6.25043V23.6401C29.3394 25.0613 28.7852 26.4237 27.8002 27.4281C26.8151 28.4325 25.4798 28.9966 24.0874 28.9966H8.60527C7.48985 28.9984 6.3862 29.2294 5.3601 29.6758C4.334 30.1222 3.40646 30.7749 2.63275 31.595L1.06135 33.4299C1.06135 33.4299 0.893182 31.8081 0.893182 30.8729Z" stroke="white" stroke-width="1.82621" stroke-linecap="round" stroke-linejoin="round" />
                  <path d="M11.6028 36.1405L9.10937 34.4714L6.1521 36.1405V29.3752H11.6028V36.1405Z" fill="white" />
                  <path d="M0.893066 30.8728V32.9622C0.893066 36.91 4.51137 40.1122 9.01106 40.1122H13.7543C18.225 40.1122 21.8723 36.91 21.8723 32.9622L16.5086 33.1989" stroke="white" stroke-width="1.82621" stroke-linecap="round" stroke-linejoin="round" />
                  <path d="M5.2998 18.3366V9.19197C5.30287 8.33221 5.63961 7.50873 6.23628 6.9019C6.83296 6.29507 7.64092 5.95434 8.48321 5.95435H18.6539" stroke="white" stroke-width="1.82621" stroke-linecap="round" stroke-linejoin="round" />
                </g>
                <defs>
                  <clipPath id="clip0_214_1546">
                    <rect width="30.2105" height="41" fill="white" />
                  </clipPath>
                </defs>
              </svg>