<svg width="24" height="24" viewBox="0 0 24 24" fill="none" xmlns="http://www.w3.org/2000/svg">
<path d="M13 16L17 12M17 12L13 8M17 12H3M8 16V17C8 17.7956 8.31607 18.5587 8.87868 19.1213C9.44129 19.6839 10.2044 20 11 20H18C18.7956 20 19.5587 19.6839 20.1213 19.1213C20.6839 18.5587 21 17.7956 21 17V7C21 6.20435 20.6839 5.44129 20.1213 4.87868C19.5587 4.31607 18.7956 4 18 4H11C10.2044 4 9.44129 4.31607 8.87868 4.87868C8.31607 5.44129 8 6.20435 8 7V8" stroke="white" stroke-opacity="0.8" stroke-width="1.5" stroke-linecap="round" stroke-linejoin="round"/>
</svg>
