
<svg width="24" height="24" viewBox="0 0 24 24" fill="none" xmlns="http://www.w3.org/2000/svg">
<path d="M10.8892 23.9999C12.7003 23.9999 14.2153 22.7089 14.5632 20.9999H7.21522C7.56331 22.7089 9.07831 23.9999 10.8892 23.9999ZM17.9013 11.999C17.8972 11.999 17.8932 11.9999 17.8892 11.9999C14.0302 11.9999 10.8892 8.85988 10.8892 5C10.8892 3.93889 11.1333 2.93586 11.5583 2.03389C11.3382 2.01298 11.1152 2 10.8892 2C7.02331 2 3.88929 5.13383 3.88929 8.99994V11.7879C3.88929 13.7669 3.02229 15.635 1.5012 16.9209C0.9942 17.354 0.7692 18.0439 0.951169 18.717C1.16318 19.4999 1.93718 20 2.74929 20H19.0242C19.8762 20 20.6793 19.448 20.8521 18.613C20.9862 17.967 20.7562 17.3219 20.2552 16.901C18.8011 15.682 17.9602 13.8909 17.9013 11.999Z" fill="#818181"/>
<path d="M22.8896 5.00006C22.8896 7.76147 20.6511 9.99994 17.8895 9.99994C15.1281 9.99994 12.8896 7.76147 12.8896 5.00006C12.8896 2.23866 15.1281 0 17.8895 0C20.6511 0 22.8896 2.23866 22.8896 5.00006Z" fill="#F04438"/>
</svg>
