<svg width="24" height="24" viewBox="0 0 24 24" fill="none" xmlns="http://www.w3.org/2000/svg">
<path d="M20.379 16.913C19.633 16.2837 19.0336 15.4989 18.6226 14.6136C18.2117 13.7284 17.9992 12.764 18 11.788V9C18 5.481 15.386 2.568 12 2.08V1C12 0.734783 11.8946 0.48043 11.7071 0.292893C11.5196 0.105357 11.2652 0 11 0C10.7348 0 10.4804 0.105357 10.2929 0.292893C10.1053 0.48043 9.99999 0.734783 9.99999 1V2.08C6.61299 2.568 3.99999 5.481 3.99999 9V11.788C4.00037 12.766 3.78682 13.7322 3.3743 14.6189C2.96178 15.5056 2.36029 16.2913 1.61199 16.921C1.34155 17.1541 1.14879 17.4643 1.05953 17.81C0.970276 18.1557 0.988776 18.5205 1.11256 18.8554C1.23634 19.1903 1.4595 19.4794 1.75214 19.684C2.04478 19.8885 2.39294 19.9988 2.74999 20H19.25C20.215 20 21 19.215 21 18.25C21 17.738 20.777 17.254 20.379 16.913ZM11 24C11.864 23.9988 12.7012 23.6998 13.3705 23.1533C14.0397 22.6068 14.5001 21.8463 14.674 21H7.32599C7.4999 21.8463 7.96028 22.6068 8.62953 23.1533C9.29877 23.6998 10.136 23.9988 11 24Z" fill="#818181"/>
</svg>
