
<svg width="17" height="16" viewBox="0 0 17 16" fill="none" xmlns="http://www.w3.org/2000/svg">
<path d="M2.89248 2.39052C2.64243 2.64057 2.50195 2.97971 2.50195 3.33333V4C2.50195 9.52267 6.97929 14 12.502 14H13.1686C13.5222 14 13.8614 13.8595 14.1114 13.6095C14.3615 13.3594 14.502 13.0203 14.502 12.6667V10.4807C14.502 10.3407 14.458 10.2043 14.3761 10.0907C14.2943 9.97714 14.1788 9.89223 14.046 9.848L11.0506 8.84933C10.8984 8.79873 10.733 8.80472 10.5849 8.86619C10.4367 8.92766 10.3157 9.0405 10.244 9.184L9.49062 10.6887C7.85826 9.95112 6.55083 8.64369 5.81329 7.01133L7.31795 6.258C7.46145 6.1863 7.57429 6.06527 7.63576 5.9171C7.69724 5.76893 7.70322 5.60356 7.65262 5.45133L6.65395 2.456C6.60976 2.3233 6.52495 2.20787 6.41152 2.12603C6.2981 2.0442 6.16182 2.00011 6.02195 2H3.83529C3.48166 2 3.14253 2.14048 2.89248 2.39052Z" stroke="#333333" stroke-width="2" stroke-linecap="round" stroke-linejoin="round"/>
</svg>
