<svg width="13" height="13" viewBox="0 0 13 13" fill="none" xmlns="http://www.w3.org/2000/svg">
<path fill-rule="evenodd" clip-rule="evenodd" d="M6.50005 0.549805C6.72548 0.549805 6.94168 0.639358 7.10109 0.798764C7.2605 0.95817 7.35005 1.17437 7.35005 1.3998V5.64981H11.6C11.8255 5.64981 12.0417 5.73936 12.2011 5.89876C12.3605 6.05817 12.45 6.27437 12.45 6.4998C12.45 6.72524 12.3605 6.94144 12.2011 7.10085C12.0417 7.26025 11.8255 7.3498 11.6 7.3498H7.35005V11.5998C7.35005 11.8252 7.2605 12.0414 7.10109 12.2008C6.94168 12.3603 6.72548 12.4498 6.50005 12.4498C6.27461 12.4498 6.05841 12.3603 5.89901 12.2008C5.7396 12.0414 5.65005 11.8252 5.65005 11.5998V7.3498H1.40005C1.17461 7.3498 0.958414 7.26025 0.799008 7.10085C0.639602 6.94144 0.550049 6.72524 0.550049 6.4998C0.550049 6.27437 0.639602 6.05817 0.799008 5.89876C0.958414 5.73936 1.17461 5.64981 1.40005 5.64981H5.65005V1.3998C5.65005 1.17437 5.7396 0.95817 5.89901 0.798764C6.05841 0.639358 6.27461 0.549805 6.50005 0.549805Z" fill="white"/>
</svg>