<svg width="17" height="17" viewBox="0 0 17 17" fill="none" xmlns="http://www.w3.org/2000/svg">
<path fill-rule="evenodd" clip-rule="evenodd" d="M2.55005 14.45C2.55005 14.2246 2.6396 14.0084 2.79901 13.849C2.95841 13.6896 3.17461 13.6 3.40005 13.6H13.6C13.8255 13.6 14.0417 13.6896 14.2011 13.849C14.3605 14.0084 14.45 14.2246 14.45 14.45C14.45 14.6754 14.3605 14.8916 14.2011 15.0511C14.0417 15.2105 13.8255 15.3 13.6 15.3H3.40005C3.17461 15.3 2.95841 15.2105 2.79901 15.0511C2.6396 14.8916 2.55005 14.6754 2.55005 14.45ZM5.3491 5.70096C5.18975 5.54156 5.10023 5.3254 5.10023 5.10001C5.10023 4.87462 5.18975 4.65846 5.3491 4.49906L7.8991 1.94906C8.0585 1.78971 8.27466 1.7002 8.50005 1.7002C8.72544 1.7002 8.9416 1.78971 9.101 1.94906L11.651 4.49906C11.8058 4.65938 11.8915 4.87409 11.8896 5.09695C11.8876 5.31982 11.7982 5.53301 11.6406 5.69061C11.483 5.84821 11.2699 5.9376 11.047 5.93954C10.8241 5.94147 10.6094 5.8558 10.4491 5.70096L9.35005 4.60191V11.05C9.35005 11.2754 9.2605 11.4916 9.10109 11.6511C8.94168 11.8105 8.72548 11.9 8.50005 11.9C8.27462 11.9 8.05841 11.8105 7.89901 11.6511C7.7396 11.4916 7.65005 11.2754 7.65005 11.05V4.60191L6.551 5.70096C6.3916 5.86031 6.17544 5.94983 5.95005 5.94983C5.72466 5.94983 5.5085 5.86031 5.3491 5.70096Z" fill="white"/>
</svg>
