<svg width="30" height="30" viewBox="0 0 30 30" fill="none" xmlns="http://www.w3.org/2000/svg">
<rect x="0.5" y="0.5" width="29" height="29" rx="3.5" fill="white"/>
<path d="M17.596 21.54L13.872 16.612L15.286 15.646L18.968 20.532L17.596 21.54ZM14.544 20.14C13.844 20.14 13.1953 20.014 12.598 19.762C12.0007 19.51 11.478 19.16 11.03 18.712C10.5913 18.2547 10.2507 17.718 10.008 17.102C9.76533 16.486 9.644 15.814 9.644 15.086C9.644 14.358 9.76533 13.686 10.008 13.07C10.2507 12.454 10.5913 11.922 11.03 11.474C11.478 11.0167 12.0007 10.662 12.598 10.41C13.1953 10.158 13.844 10.032 14.544 10.032C15.2533 10.032 15.9067 10.158 16.504 10.41C17.1013 10.662 17.6193 11.0167 18.058 11.474C18.4967 11.9313 18.8373 12.468 19.08 13.084C19.3227 13.6907 19.444 14.358 19.444 15.086C19.444 15.8047 19.3227 16.472 19.08 17.088C18.8373 17.704 18.4967 18.2407 18.058 18.698C17.6193 19.1553 17.1013 19.51 16.504 19.762C15.9067 20.014 15.2533 20.14 14.544 20.14ZM14.544 18.404C14.992 18.404 15.398 18.3247 15.762 18.166C16.1353 17.998 16.4573 17.7647 16.728 17.466C16.9987 17.158 17.2087 16.8033 17.358 16.402C17.5167 16.0007 17.596 15.562 17.596 15.086C17.596 14.61 17.5167 14.1713 17.358 13.77C17.2087 13.3687 16.9987 13.0187 16.728 12.72C16.4573 12.412 16.1353 12.1787 15.762 12.02C15.398 11.852 14.992 11.768 14.544 11.768C14.1053 11.768 13.6993 11.852 13.326 12.02C12.9527 12.1787 12.6307 12.4073 12.36 12.706C12.0893 13.0047 11.8793 13.3547 11.73 13.756C11.5807 14.1573 11.506 14.6007 11.506 15.086C11.506 15.562 11.5807 16.0053 11.73 16.416C11.8793 16.8173 12.0893 17.1673 12.36 17.466C12.6307 17.7647 12.9527 17.998 13.326 18.166C13.6993 18.3247 14.1053 18.404 14.544 18.404Z" fill="#818181"/>
<rect x="0.5" y="0.5" width="29" height="29" rx="3.5" stroke="#D0D5DD"/>
</svg>
