<svg width="24" height="24" viewBox="0 0 24 24" fill="none" xmlns="http://www.w3.org/2000/svg">
<path d="M10.8001 2.40039C10.4818 2.40039 10.1766 2.52682 9.95157 2.75186C9.72653 2.97691 9.6001 3.28213 9.6001 3.60039C9.6001 3.91865 9.72653 4.22387 9.95157 4.44892C10.1766 4.67396 10.4818 4.80039 10.8001 4.80039H13.2001C13.5184 4.80039 13.8236 4.67396 14.0486 4.44892C14.2737 4.22387 14.4001 3.91865 14.4001 3.60039C14.4001 3.28213 14.2737 2.97691 14.0486 2.75186C13.8236 2.52682 13.5184 2.40039 13.2001 2.40039H10.8001Z" fill="white" fill-opacity="0.8"/>
<path fill-rule="evenodd" clip-rule="evenodd" d="M4.80005 5.99961C4.80005 5.36309 5.05291 4.75264 5.50299 4.30255C5.95308 3.85247 6.56353 3.59961 7.20005 3.59961C7.20005 4.55439 7.57933 5.47006 8.25447 6.14519C8.9296 6.82032 9.84527 7.19961 10.8 7.19961H13.2001C14.1548 7.19961 15.0705 6.82032 15.7456 6.14519C16.4208 5.47006 16.8001 4.55439 16.8001 3.59961C17.4366 3.59961 18.047 3.85247 18.4971 4.30255C18.9472 4.75264 19.2001 5.36309 19.2001 5.99961V19.1996C19.2001 19.8361 18.9472 20.4466 18.4971 20.8967C18.047 21.3468 17.4366 21.5996 16.8001 21.5996H7.20005C6.56353 21.5996 5.95308 21.3468 5.50299 20.8967C5.05291 20.4466 4.80005 19.8361 4.80005 19.1996V5.99961ZM8.40005 10.7996C8.08179 10.7996 7.77657 10.926 7.55152 11.1511C7.32648 11.3761 7.20005 11.6813 7.20005 11.9996C7.20005 12.3179 7.32648 12.6231 7.55152 12.8481C7.77657 13.0732 8.08179 13.1996 8.40005 13.1996H8.41205C8.73031 13.1996 9.03553 13.0732 9.26058 12.8481C9.48562 12.6231 9.61205 12.3179 9.61205 11.9996C9.61205 11.6813 9.48562 11.3761 9.26058 11.1511C9.03553 10.926 8.73031 10.7996 8.41205 10.7996H8.40005ZM12 10.7996C11.6818 10.7996 11.3766 10.926 11.1515 11.1511C10.9265 11.3761 10.8 11.6813 10.8 11.9996C10.8 12.3179 10.9265 12.6231 11.1515 12.8481C11.3766 13.0732 11.6818 13.1996 12 13.1996H15.6C15.9183 13.1996 16.2235 13.0732 16.4486 12.8481C16.6736 12.6231 16.8001 12.3179 16.8001 11.9996C16.8001 11.6813 16.6736 11.3761 16.4486 11.1511C16.2235 10.926 15.9183 10.7996 15.6 10.7996H12ZM8.40005 15.5996C8.08179 15.5996 7.77657 15.726 7.55152 15.9511C7.32648 16.1761 7.20005 16.4813 7.20005 16.7996C7.20005 17.1179 7.32648 17.4231 7.55152 17.6481C7.77657 17.8732 8.08179 17.9996 8.40005 17.9996H8.41205C8.73031 17.9996 9.03553 17.8732 9.26058 17.6481C9.48562 17.4231 9.61205 17.1179 9.61205 16.7996C9.61205 16.4813 9.48562 16.1761 9.26058 15.9511C9.03553 15.726 8.73031 15.5996 8.41205 15.5996H8.40005ZM12 15.5996C11.6818 15.5996 11.3766 15.726 11.1515 15.9511C10.9265 16.1761 10.8 16.4813 10.8 16.7996C10.8 17.1179 10.9265 17.4231 11.1515 17.6481C11.3766 17.8732 11.6818 17.9996 12 17.9996H15.6C15.9183 17.9996 16.2235 17.8732 16.4486 17.6481C16.6736 17.4231 16.8001 17.1179 16.8001 16.7996C16.8001 16.4813 16.6736 16.1761 16.4486 15.9511C16.2235 15.726 15.9183 15.5996 15.6 15.5996H12Z" fill="white" fill-opacity="0.8"/>
</svg>
