<svg width="16" height="19" viewBox="0 0 16 19" fill="none" xmlns="http://www.w3.org/2000/svg">
<path d="M3.19981 0.600098C2.56329 0.600098 1.95284 0.852954 1.50275 1.30304C1.05266 1.75313 0.799805 2.36358 0.799805 3.0001V16.2001C0.799805 16.8366 1.05266 17.4471 1.50275 17.8972C1.95284 18.3472 2.56329 18.6001 3.19981 18.6001H12.7998C13.4363 18.6001 14.0468 18.3472 14.4969 17.8972C14.9469 17.4471 15.1998 16.8366 15.1998 16.2001V3.0001C15.1998 2.36358 14.9469 1.75313 14.4969 1.30304C14.0468 0.852954 13.4363 0.600098 12.7998 0.600098C12.7998 1.55488 12.4205 2.47055 11.7454 3.14568C11.0703 3.82081 10.1546 4.2001 9.19981 4.2001H6.79981C5.84503 4.2001 4.92935 3.82081 4.25422 3.14568C3.57909 2.47055 3.19981 1.55488 3.19981 0.600098Z" fill="white" fill-opacity="0.8"/>
</svg>
