<svg width="24" height="24" viewBox="0 0 24 24" fill="none" xmlns="http://www.w3.org/2000/svg">
<rect y="0.00585938" width="23.9996" height="23.9875" rx="4" fill="#F4F2FF"/>
<path fill-rule="evenodd" clip-rule="evenodd" d="M9.29279 16.7006C9.10532 16.513 9 16.2587 9 15.9936C9 15.7284 9.10532 15.4741 9.29279 15.2866L12.5858 11.9936L9.29279 8.70057C9.11063 8.51197 9.00983 8.25937 9.01211 7.99717C9.01439 7.73497 9.11956 7.48416 9.30497 7.29875C9.49038 7.11334 9.74119 7.00818 10.0034 7.0059C10.2656 7.00362 10.5182 7.10441 10.7068 7.28657L14.7068 11.2866C14.8943 11.4741 14.9996 11.7284 14.9996 11.9936C14.9996 12.2587 14.8943 12.513 14.7068 12.7006L10.7068 16.7006C10.5193 16.888 10.265 16.9934 9.99979 16.9934C9.73462 16.9934 9.48031 16.888 9.29279 16.7006Z" fill="#2D42FF"/>
</svg>
