<svg width="6" height="10" viewBox="0 0 6 10" fill="none" xmlns="http://www.w3.org/2000/svg">
<path fill-rule="evenodd" clip-rule="evenodd" d="M0.292787 9.70106C0.105316 9.51353 0 9.25922 0 8.99406C0 8.7289 0.105316 8.47459 0.292787 8.28706L3.58579 4.99406L0.292787 1.70106C0.110629 1.51246 0.00983372 1.25986 0.0121121 0.997658C0.0143906 0.735462 0.11956 0.484649 0.304968 0.299241C0.490376 0.113833 0.741189 0.00866388 1.00339 0.00638546C1.26558 0.00410704 1.51818 0.104902 1.70679 0.28706L5.70679 4.28706C5.89426 4.47459 5.99957 4.7289 5.99957 4.99406C5.99957 5.25922 5.89426 5.51353 5.70679 5.70106L1.70679 9.70106C1.51926 9.88853 1.26495 9.99385 0.999786 9.99385C0.734622 9.99385 0.480314 9.88853 0.292787 9.70106Z" fill="#7E65EF"/>
</svg>