<svg width="20" height="20" viewBox="0 0 20 20" fill="none" xmlns="http://www.w3.org/2000/svg">
<path fill-rule="evenodd" clip-rule="evenodd" d="M5.20039 0.399902C4.88213 0.399902 4.57691 0.526331 4.35186 0.751374C4.12682 0.976418 4.00039 1.28164 4.00039 1.5999V2.7999H2.80039C2.16387 2.7999 1.55342 3.05276 1.10333 3.50285C0.653247 3.95293 0.400391 4.56338 0.400391 5.1999V17.1999C0.400391 17.8364 0.653247 18.4469 1.10333 18.897C1.55342 19.347 2.16387 19.5999 2.80039 19.5999H17.2004C17.8369 19.5999 18.4474 19.347 18.8974 18.897C19.3475 18.4469 19.6004 17.8364 19.6004 17.1999V5.1999C19.6004 4.56338 19.3475 3.95293 18.8974 3.50285C18.4474 3.05276 17.8369 2.7999 17.2004 2.7999H16.0004V1.5999C16.0004 1.28164 15.874 0.976418 15.6489 0.751374C15.4239 0.526331 15.1187 0.399902 14.8004 0.399902C14.4821 0.399902 14.1769 0.526331 13.9519 0.751374C13.7268 0.976418 13.6004 1.28164 13.6004 1.5999V2.7999H6.40039V1.5999C6.40039 1.28164 6.27396 0.976418 6.04892 0.751374C5.82387 0.526331 5.51865 0.399902 5.20039 0.399902ZM5.20039 6.3999C4.88213 6.3999 4.57691 6.52633 4.35186 6.75137C4.12682 6.97642 4.00039 7.28164 4.00039 7.5999C4.00039 7.91816 4.12682 8.22339 4.35186 8.44843C4.57691 8.67347 4.88213 8.7999 5.20039 8.7999H14.8004C15.1187 8.7999 15.4239 8.67347 15.6489 8.44843C15.874 8.22339 16.0004 7.91816 16.0004 7.5999C16.0004 7.28164 15.874 6.97642 15.6489 6.75137C15.4239 6.52633 15.1187 6.3999 14.8004 6.3999H5.20039Z" fill="white" fill-opacity="0.8"/>
</svg>
