<svg width="18" height="18" viewBox="0 0 18 18" fill="none" xmlns="http://www.w3.org/2000/svg">
<path d="M4.5 9H3M4.5 9C4.5 9.39782 4.65804 9.77936 4.93934 10.0607C5.22064 10.342 5.60218 10.5 6 10.5C6.39782 10.5 6.77936 10.342 7.06066 10.0607C7.34196 9.77936 7.5 9.39782 7.5 9M4.5 9C4.5 8.60218 4.65804 8.22064 4.93934 7.93934C5.22064 7.65804 5.60218 7.5 6 7.5C6.39782 7.5 6.77936 7.65804 7.06066 7.93934C7.34196 8.22064 7.5 8.60218 7.5 9M7.5 9H15M13.5 13.5C13.5 13.1022 13.342 12.7206 13.0607 12.4393C12.7794 12.158 12.3978 12 12 12C11.6022 12 11.2206 12.158 10.9393 12.4393C10.658 12.7206 10.5 13.1022 10.5 13.5M13.5 13.5C13.5 13.8978 13.342 14.2794 13.0607 14.5607C12.7794 14.842 12.3978 15 12 15C11.6022 15 11.2206 14.842 10.9393 14.5607C10.658 14.2794 10.5 13.8978 10.5 13.5M13.5 13.5H15M10.5 13.5H3M13.5 4.5C13.5 4.10218 13.342 3.72064 13.0607 3.43934C12.7794 3.15804 12.3978 3 12 3C11.6022 3 11.2206 3.15804 10.9393 3.43934C10.658 3.72064 10.5 4.10218 10.5 4.5M13.5 4.5C13.5 4.89782 13.342 5.27936 13.0607 5.56066C12.7794 5.84196 12.3978 6 12 6C11.6022 6 11.2206 5.84196 10.9393 5.56066C10.658 5.27936 10.5 4.89782 10.5 4.5M13.5 4.5H15M10.5 4.5H3" stroke="white" stroke-linecap="round" stroke-linejoin="round"/>
</svg>
