<svg width="56" height="56" viewBox="0 0 56 56" fill="none" xmlns="http://www.w3.org/2000/svg">
<rect width="56" height="56" rx="28" fill="#FFDFDD"/>
<path d="M27 32L23 28M23 28L27 24M23 28H37M32 32V33C32 33.7956 31.6839 34.5587 31.1213 35.1213C30.5587 35.6839 29.7956 36 29 36H22C21.2044 36 20.4413 35.6839 19.8787 35.1213C19.3161 34.5587 19 33.7956 19 33V23C19 22.2044 19.3161 21.4413 19.8787 20.8787C20.4413 20.3161 21.2044 20 22 20H29C29.7956 20 30.5587 20.3161 31.1213 20.8787C31.6839 21.4413 32 22.2044 32 23V24" stroke="#F04438" stroke-width="2" stroke-linecap="round" stroke-linejoin="round"/>
</svg>
