<svg width="32" height="32" viewBox="0 0 32 32" fill="none" xmlns="http://www.w3.org/2000/svg">
<path d="M16.0002 11.0549V22M16.0002 11.0549C15.0168 10.4016 13.6815 10 12.2115 10C10.7415 10 9.40622 10.4016 8.42285 11.0549V22C9.40622 21.3467 10.7415 20.9451 12.2115 20.9451C13.6815 20.9451 15.0168 21.3467 16.0002 22M16.0002 11.0549C16.9836 10.4016 18.3189 10 19.7889 10C21.2597 10 22.5942 10.4016 23.5776 11.0549V22C22.5942 21.3467 21.2597 20.9451 19.7889 20.9451C18.3189 20.9451 16.9836 21.3467 16.0002 22" stroke="#5B36C6" stroke-width="1.5" stroke-linecap="round" stroke-linejoin="round"/>
<rect x="0.5" y="0.5" width="31" height="31" rx="4.5" stroke="#D8DADC"/>
</svg>
