<svg width="64" height="64" viewBox="0 0 64 64" fill="none" xmlns="http://www.w3.org/2000/svg">
<path d="M17.5125 15.6236C18.7855 15.6236 20.0064 15.1179 20.9066 14.2177C21.8068 13.3175 22.3125 12.0966 22.3125 10.8236C22.3125 9.55056 21.8068 8.32966 20.9066 7.42949C20.0064 6.52931 18.7855 6.0236 17.5125 6.0236C16.2395 6.0236 15.0186 6.52931 14.1184 7.42949C13.2182 8.32966 12.7125 9.55056 12.7125 10.8236C12.7125 12.0966 13.2182 13.3175 14.1184 14.2177C15.0186 15.1179 16.2395 15.6236 17.5125 15.6236ZM16.7125 54.0236V41.2236H18.3125V54.0236C18.3125 55.7936 19.7425 57.2236 21.5125 57.2236C23.2825 57.2236 24.7125 55.7936 24.7125 54.0236V25.2236H30.3125H36.7125H38.3125C40.0825 25.2236 41.5125 23.7936 41.5125 22.0236C41.5125 20.2536 40.0825 18.8236 38.3125 18.8236H36.7125V12.4236H55.9125V31.6236H36.7125V28.4236H30.3125V33.2236C30.3125 35.8736 32.4625 38.0236 35.1125 38.0236H57.5125C60.1625 38.0236 62.3125 35.8736 62.3125 33.2236V10.8236C62.3125 8.1736 60.1625 6.0236 57.5125 6.0236H35.1125C32.4625 6.0236 30.3125 8.1736 30.3125 10.8236V18.8236H22.6225H16.0225C12.6525 18.8236 9.5325 20.5936 7.7925 23.4836L1.9625 33.1836C1.0525 34.6936 1.5425 36.6636 3.0525 37.5736C4.5625 38.4836 6.5325 37.9936 7.4425 36.4836L10.3125 31.7136V54.0236C10.3125 55.7936 11.7425 57.2236 13.5125 57.2236C15.2825 57.2236 16.7125 55.7936 16.7125 54.0236Z" fill="white"/>
</svg>
