<svg width="14" height="14" viewBox="0 0 14 14" fill="none" xmlns="http://www.w3.org/2000/svg">
<path d="M11.6667 3.66667L11.0887 11.7613C11.0647 12.0977 10.9142 12.4125 10.6674 12.6424C10.4206 12.8722 10.0959 13 9.75866 13H4.24133C3.90409 13 3.57938 12.8722 3.33259 12.6424C3.0858 12.4125 2.93528 12.0977 2.91133 11.7613L2.33333 3.66667M5.66667 6.33333V10.3333M8.33333 6.33333V10.3333M9 3.66667V1.66667C9 1.48986 8.92976 1.32029 8.80474 1.19526C8.67971 1.07024 8.51014 1 8.33333 1H5.66667C5.48985 1 5.32029 1.07024 5.19526 1.19526C5.07024 1.32029 5 1.48986 5 1.66667V3.66667M1.66667 3.66667H12.3333" stroke="#818181" stroke-width="1.5" stroke-linecap="round" stroke-linejoin="round"/>
</svg>
