
<svg width="17" height="17" viewBox="0 0 17 17" fill="none" xmlns="http://www.w3.org/2000/svg">
<path fill-rule="evenodd" clip-rule="evenodd" d="M2.5498 14.45C2.5498 14.2246 2.63936 14.0084 2.79876 13.849C2.95817 13.6896 3.17437 13.6 3.3998 13.6H13.5998C13.8252 13.6 14.0414 13.6896 14.2008 13.849C14.3603 14.0084 14.4498 14.2246 14.4498 14.45C14.4498 14.6754 14.3603 14.8916 14.2008 15.0511C14.0414 15.2105 13.8252 15.3 13.5998 15.3H3.3998C3.17437 15.3 2.95817 15.2105 2.79876 15.0511C2.63936 14.8916 2.5498 14.6754 2.5498 14.45ZM5.34886 5.70096C5.1895 5.54156 5.09999 5.3254 5.09999 5.10001C5.09999 4.87462 5.1895 4.65846 5.34886 4.49906L7.89886 1.94906C8.05825 1.78971 8.27442 1.7002 8.4998 1.7002C8.72519 1.7002 8.94136 1.78971 9.10075 1.94906L11.6508 4.49906C11.8056 4.65938 11.8913 4.87409 11.8893 5.09695C11.8874 5.31982 11.798 5.53301 11.6404 5.69061C11.4828 5.84821 11.2696 5.9376 11.0467 5.93954C10.8239 5.94147 10.6092 5.8558 10.4489 5.70096L9.3498 4.60191V11.05C9.3498 11.2754 9.26025 11.4916 9.10085 11.6511C8.94144 11.8105 8.72524 11.9 8.4998 11.9C8.27437 11.9 8.05817 11.8105 7.89876 11.6511C7.73936 11.4916 7.64981 11.2754 7.64981 11.05V4.60191L6.55075 5.70096C6.39136 5.86031 6.17519 5.94983 5.9498 5.94983C5.72442 5.94983 5.50825 5.86031 5.34886 5.70096Z" fill="white"/>
</svg>
