
<svg width="12" height="12" viewBox="0 0 12 12" fill="none" xmlns="http://www.w3.org/2000/svg">
<path d="M6.15039 4C6.00039 4 5.90039 3.95 5.80039 3.85L3.90039 1.95L2.00039 3.85C1.80039 4.05 1.50039 4.05 1.30039 3.85C1.10039 3.65 1.10039 3.35 1.30039 3.15L3.50039 0.9C3.70039 0.7 4.00039 0.7 4.20039 0.9L6.50039 3.15C6.70039 3.35 6.70039 3.65 6.50039 3.85C6.40039 3.95 6.25039 4 6.15039 4Z" fill="#788898"/>
<path d="M3.85156 8.25C3.55156 8.25 3.35156 8.05 3.35156 7.75V1.25C3.35156 0.95 3.55156 0.75 3.85156 0.75C4.15156 0.75 4.35156 0.95 4.35156 1.25V7.75C4.35156 8.05 4.15156 8.25 3.85156 8.25ZM8.15156 11.25C8.00156 11.25 7.90156 11.2 7.80156 11.1L5.50156 8.85C5.30156 8.65 5.30156 8.35 5.50156 8.15C5.70156 7.95 6.00156 7.95 6.20156 8.15L8.10156 10.05L10.0016 8.15C10.2016 7.95 10.5016 7.95 10.7016 8.15C10.9016 8.35 10.9016 8.65 10.7016 8.85L8.50156 11.1C8.40156 11.2 8.25156 11.25 8.15156 11.25Z" fill="#788898"/>
<path d="M8.10059 11.25C7.80059 11.25 7.60059 11.05 7.60059 10.75V4.25C7.60059 3.95 7.80059 3.75 8.10059 3.75C8.40059 3.75 8.60059 3.95 8.60059 4.25V10.75C8.60059 11.05 8.40059 11.25 8.10059 11.25Z" fill="#788898"/>
</svg>
