<svg width="10" height="11" viewBox="0 0 10 11" fill="none" xmlns="http://www.w3.org/2000/svg">
<path d="M5.1499 3.5C4.9999 3.5 4.8999 3.45 4.7999 3.35L2.8999 1.45L0.999902 3.35C0.799902 3.55 0.499902 3.55 0.299902 3.35C0.0999023 3.15 0.0999023 2.85 0.299902 2.65L2.4999 0.4C2.6999 0.2 2.9999 0.2 3.1999 0.4L5.4999 2.65C5.6999 2.85 5.6999 3.15 5.4999 3.35C5.3999 3.45 5.2499 3.5 5.1499 3.5Z" fill="#788898"/>
<path d="M2.85156 7.75C2.55156 7.75 2.35156 7.55 2.35156 7.25V0.75C2.35156 0.45 2.55156 0.25 2.85156 0.25C3.15156 0.25 3.35156 0.45 3.35156 0.75V7.25C3.35156 7.55 3.15156 7.75 2.85156 7.75ZM7.15156 10.75C7.00156 10.75 6.90156 10.7 6.80156 10.6L4.50156 8.35C4.30156 8.15 4.30156 7.85 4.50156 7.65C4.70156 7.45 5.00156 7.45 5.20156 7.65L7.10156 9.55L9.00156 7.65C9.20156 7.45 9.50156 7.45 9.70156 7.65C9.90156 7.85 9.90156 8.15 9.70156 8.35L7.50156 10.6C7.40156 10.7 7.25156 10.75 7.15156 10.75Z" fill="#788898"/>
<path d="M7.09985 10.75C6.79985 10.75 6.59985 10.55 6.59985 10.25V3.75C6.59985 3.45 6.79985 3.25 7.09985 3.25C7.39985 3.25 7.59985 3.45 7.59985 3.75V10.25C7.59985 10.55 7.39985 10.75 7.09985 10.75Z" fill="#788898"/>
</svg>
