<svg width="13" height="15" viewBox="0 0 13 15" fill="none" xmlns="http://www.w3.org/2000/svg">
<path fill-rule="evenodd" clip-rule="evenodd" d="M0.549805 13.45C0.549805 13.2246 0.639358 13.0084 0.798764 12.849C0.95817 12.6896 1.17437 12.6 1.3998 12.6H11.5998C11.8252 12.6 12.0414 12.6896 12.2008 12.849C12.3603 13.0084 12.4498 13.2246 12.4498 13.45C12.4498 13.6754 12.3603 13.8916 12.2008 14.0511C12.0414 14.2105 11.8252 14.3 11.5998 14.3H1.3998C1.17437 14.3 0.95817 14.2105 0.798764 14.0511C0.639358 13.8916 0.549805 13.6754 0.549805 13.45ZM3.34886 4.70096C3.1895 4.54156 3.09999 4.3254 3.09999 4.10001C3.09999 3.87462 3.1895 3.65846 3.34886 3.49906L5.89886 0.949064C6.05825 0.789713 6.27442 0.700195 6.4998 0.700195C6.72519 0.700195 6.94136 0.789713 7.10075 0.949064L9.65075 3.49906C9.80559 3.65938 9.89126 3.87409 9.88933 4.09695C9.88739 4.31982 9.798 4.53301 9.6404 4.69061C9.4828 4.84821 9.26961 4.9376 9.04675 4.93954C8.82388 4.94147 8.60917 4.8558 8.44885 4.70096L7.3498 3.60191V10.05C7.3498 10.2754 7.26025 10.4916 7.10085 10.6511C6.94144 10.8105 6.72524 10.9 6.4998 10.9C6.27437 10.9 6.05817 10.8105 5.89876 10.6511C5.73936 10.4916 5.64981 10.2754 5.64981 10.05V3.60191L4.55075 4.70096C4.39136 4.86031 4.17519 4.94983 3.9498 4.94983C3.72442 4.94983 3.50825 4.86031 3.34886 4.70096Z" fill="white"/>
</svg>
