<svg width="24" height="20" viewBox="0 0 24 20" fill="none" xmlns="http://www.w3.org/2000/svg">
<path d="M5.4 0.399902C6.19565 0.399902 6.95871 0.715973 7.52132 1.27858C8.08393 1.84119 8.4 2.60425 8.4 3.3999C8.4 4.19555 8.08393 4.95861 7.52132 5.52122C6.95871 6.08383 6.19565 6.3999 5.4 6.3999C4.60435 6.3999 3.84129 6.08383 3.27868 5.52122C2.71607 4.95861 2.4 4.19555 2.4 3.3999C2.4 2.60425 2.71607 1.84119 3.27868 1.27858C3.84129 0.715973 4.60435 0.399902 5.4 0.399902ZM19.2 0.399902C19.9957 0.399902 20.7587 0.715973 21.3213 1.27858C21.8839 1.84119 22.2 2.60425 22.2 3.3999C22.2 4.19555 21.8839 4.95861 21.3213 5.52122C20.7587 6.08383 19.9957 6.3999 19.2 6.3999C18.4044 6.3999 17.6413 6.08383 17.0787 5.52122C16.5161 4.95861 16.2 4.19555 16.2 3.3999C16.2 2.60425 16.5161 1.84119 17.0787 1.27858C17.6413 0.715973 18.4044 0.399902 19.2 0.399902ZM0 11.6012C0 9.3924 1.7925 7.5999 4.00125 7.5999H5.6025C6.19875 7.5999 6.765 7.73115 7.275 7.96365C7.22625 8.23365 7.20375 8.5149 7.20375 8.7999C7.20375 10.2324 7.83375 11.5187 8.8275 12.3999C8.82 12.3999 8.8125 12.3999 8.80125 12.3999H0.79875C0.36 12.3999 0 12.0399 0 11.6012ZM15.1987 12.3999C15.1912 12.3999 15.1838 12.3999 15.1725 12.3999C16.17 11.5187 16.7962 10.2324 16.7962 8.7999C16.7962 8.5149 16.77 8.2374 16.725 7.96365C17.235 7.7274 17.8013 7.5999 18.3975 7.5999H19.9988C22.2075 7.5999 24 9.3924 24 11.6012C24 12.0437 23.64 12.3999 23.2013 12.3999H15.1987ZM8.4 8.7999C8.4 7.84512 8.77929 6.92945 9.45442 6.25432C10.1295 5.57919 11.0452 5.1999 12 5.1999C12.9548 5.1999 13.8705 5.57919 14.5456 6.25432C15.2207 6.92945 15.6 7.84512 15.6 8.7999C15.6 9.75468 15.2207 10.6704 14.5456 11.3455C13.8705 12.0206 12.9548 12.3999 12 12.3999C11.0452 12.3999 10.1295 12.0206 9.45442 11.3455C8.77929 10.6704 8.4 9.75468 8.4 8.7999ZM4.8 18.5987C4.8 15.8387 7.03875 13.5999 9.79875 13.5999H14.2013C16.9613 13.5999 19.2 15.8387 19.2 18.5987C19.2 19.1499 18.7537 19.5999 18.1987 19.5999H5.80125C5.25 19.5999 4.8 19.1537 4.8 18.5987Z" fill="white" fill-opacity="0.8"/>
</svg>
