<svg width="17" height="17" viewBox="0 0 17 17" fill="none" xmlns="http://www.w3.org/2000/svg">
<path d="M7.16667 3.16664H3C2.55797 3.16664 2.13405 3.34223 1.82149 3.65479C1.50893 3.96736 1.33333 4.39128 1.33333 4.83331V14C1.33333 14.442 1.50893 14.8659 1.82149 15.1785C2.13405 15.491 2.55797 15.6666 3 15.6666H12.1667C12.6087 15.6666 13.0326 15.491 13.3452 15.1785C13.6577 14.8659 13.8333 14.442 13.8333 14V9.83331M12.655 1.98831C12.8087 1.82912 12.9927 1.70215 13.196 1.6148C13.3993 1.52746 13.618 1.48148 13.8393 1.47956C14.0606 1.47763 14.2801 1.5198 14.4849 1.6036C14.6897 1.6874 14.8758 1.81116 15.0323 1.96765C15.1888 2.12414 15.3126 2.31022 15.3964 2.51505C15.4802 2.71988 15.5223 2.93934 15.5204 3.16064C15.5185 3.38194 15.4725 3.60064 15.3852 3.80398C15.2978 4.00732 15.1708 4.19123 15.0117 4.34497L7.85667 11.5H5.5V9.14331L12.655 1.98831Z" stroke="#333333" stroke-width="1.5" stroke-linecap="round" stroke-linejoin="round"/>
</svg>
